<mxfile host="app.diagrams.net" agent="Mozilla/5.0 (Windows NT 10.0; Win64; x64) AppleWebKit/537.36 (KHTML, like Gecko) Chrome/131.0.0.0 Safari/537.36" version="25.0.3">
  <diagram name="Seite-1" id="oqEKJwpuXkQhSPLgd6pN">
    <mxGraphModel dx="1728" dy="915" grid="1" gridSize="10" guides="1" tooltips="1" connect="1" arrows="1" fold="1" page="1" pageScale="1" pageWidth="827" pageHeight="1169" math="0" shadow="0">
      <root>
        <mxCell id="0" />
        <mxCell id="1" parent="0" />
        <mxCell id="dYVZeftza5Ptzcx6qMnq-100" value="" style="rounded=1;whiteSpace=wrap;html=1;fillColor=none;dashed=1;arcSize=8;strokeColor=#347CCF;" parent="1" vertex="1">
          <mxGeometry x="420" y="380" width="260" height="270" as="geometry" />
        </mxCell>
        <mxCell id="dYVZeftza5Ptzcx6qMnq-101" value="" style="rounded=1;whiteSpace=wrap;html=1;fillColor=none;dashed=1;arcSize=8;" parent="1" vertex="1">
          <mxGeometry x="690" y="380" width="390" height="270" as="geometry" />
        </mxCell>
        <mxCell id="dYVZeftza5Ptzcx6qMnq-97" value="" style="rounded=1;whiteSpace=wrap;html=1;fillColor=none;dashed=1;arcSize=8;strokeColor=#ff0080;" parent="1" vertex="1">
          <mxGeometry x="420" y="150" width="290" height="220" as="geometry" />
        </mxCell>
        <mxCell id="dYVZeftza5Ptzcx6qMnq-34" value="" style="rounded=1;whiteSpace=wrap;html=1;arcSize=10;verticalAlign=bottom;" parent="1" vertex="1">
          <mxGeometry x="511.83000000000004" y="553" width="70" height="60" as="geometry" />
        </mxCell>
        <mxCell id="dYVZeftza5Ptzcx6qMnq-33" value="" style="rounded=1;whiteSpace=wrap;html=1;arcSize=10;verticalAlign=bottom;" parent="1" vertex="1">
          <mxGeometry x="506" y="547" width="70" height="60" as="geometry" />
        </mxCell>
        <mxCell id="dYVZeftza5Ptzcx6qMnq-44" style="edgeStyle=orthogonalEdgeStyle;rounded=0;orthogonalLoop=1;jettySize=auto;html=1;exitX=1;exitY=0.5;exitDx=0;exitDy=0;entryX=0;entryY=0.5;entryDx=0;entryDy=0;" parent="1" source="dYVZeftza5Ptzcx6qMnq-1" target="dYVZeftza5Ptzcx6qMnq-8" edge="1">
          <mxGeometry relative="1" as="geometry" />
        </mxCell>
        <mxCell id="dYVZeftza5Ptzcx6qMnq-1" value="Browser" style="rounded=1;whiteSpace=wrap;html=1;arcSize=8;" parent="1" vertex="1">
          <mxGeometry x="130" y="280" width="100" height="60" as="geometry" />
        </mxCell>
        <mxCell id="dYVZeftza5Ptzcx6qMnq-2" value="" style="endArrow=none;html=1;rounded=0;entryX=1;entryY=0.083;entryDx=0;entryDy=0;entryPerimeter=0;exitX=0.002;exitY=0.084;exitDx=0;exitDy=0;exitPerimeter=0;" parent="1" source="dYVZeftza5Ptzcx6qMnq-1" target="dYVZeftza5Ptzcx6qMnq-1" edge="1">
          <mxGeometry width="50" height="50" relative="1" as="geometry">
            <mxPoint x="110" y="285" as="sourcePoint" />
            <mxPoint x="240" y="285" as="targetPoint" />
          </mxGeometry>
        </mxCell>
        <mxCell id="dYVZeftza5Ptzcx6qMnq-4" value="" style="endArrow=none;html=1;rounded=0;" parent="1" edge="1">
          <mxGeometry width="50" height="50" relative="1" as="geometry">
            <mxPoint x="220" y="285" as="sourcePoint" />
            <mxPoint x="220" y="280" as="targetPoint" />
          </mxGeometry>
        </mxCell>
        <mxCell id="dYVZeftza5Ptzcx6qMnq-5" value="" style="endArrow=none;html=1;rounded=0;" parent="1" edge="1">
          <mxGeometry width="50" height="50" relative="1" as="geometry">
            <mxPoint x="223" y="284" as="sourcePoint" />
            <mxPoint x="226" y="281" as="targetPoint" />
          </mxGeometry>
        </mxCell>
        <mxCell id="dYVZeftza5Ptzcx6qMnq-7" value="" style="endArrow=none;html=1;rounded=0;" parent="1" edge="1">
          <mxGeometry width="50" height="50" relative="1" as="geometry">
            <mxPoint x="226" y="284" as="sourcePoint" />
            <mxPoint x="223" y="281" as="targetPoint" />
          </mxGeometry>
        </mxCell>
        <mxCell id="dYVZeftza5Ptzcx6qMnq-10" value="" style="group" parent="1" vertex="1" connectable="0">
          <mxGeometry x="330" y="280" width="70" height="60" as="geometry" />
        </mxCell>
        <mxCell id="dYVZeftza5Ptzcx6qMnq-8" value="nginx" style="rounded=1;whiteSpace=wrap;html=1;arcSize=10;verticalAlign=bottom;" parent="dYVZeftza5Ptzcx6qMnq-10" vertex="1">
          <mxGeometry width="70" height="60" as="geometry" />
        </mxCell>
        <mxCell id="dYVZeftza5Ptzcx6qMnq-9" value="" style="shape=image;verticalLabelPosition=bottom;labelBackgroundColor=default;verticalAlign=top;aspect=fixed;imageAspect=0;image=data:image/svg+xml,PHN2ZyB4bWxucz0iaHR0cDovL3d3dy53My5vcmcvMjAwMC9zdmciIHZpZXdCb3g9IjAgMCAzMiAzMiIgaGVpZ2h0PSI4MDBweCIgd2lkdGg9IjgwMHB4Ij48dGl0bGU+ZmlsZV90eXBlX25naW54PC90aXRsZT48cGF0aCBzdHlsZT0iZmlsbDojMDE5NjM5IiBkPSJNMTUuOTQ4LDJoLjA2NWExMC40MTgsMTAuNDE4LDAsMCwxLC45NzIuNTI4UTIyLjQxNCw1LjY1LDI3Ljg0Myw4Ljc3NGEuNzkyLjc5MiwwLDAsMSwuNDE0Ljc4OGMtLjAwOCw0LjM4OSwwLDguNzc3LS4wMDUsMTMuMTY0YS44MTMuODEzLDAsMCwxLS4zNTYuNTA3cS01Ljc3MywzLjMyNC0xMS41NDcsNi42NDRhLjU4Ny41ODcsMCwwLDEtLjY1Ny4wMzdROS45MTIsMjYuNiw0LjE0MywyMy4yNzRhLjcuNywwLDAsMS0uNC0uNjY2cTAtNi41ODIsMC0xMy4xNjNhLjY5My42OTMsMCwwLDEsLjM4Ny0uNjdROS41NTIsNS42NTcsMTQuOTc0LDIuNTM1Yy4zMjItLjE4NC42MzgtLjM3OS45NzQtLjUzNSIvPjxwYXRoIHN0eWxlPSJmaWxsOiNmZmYiIGQ9Ik04Ljc2NywxMC41MzhxMCw1LjQyOSwwLDEwLjg1OWExLjUwOSwxLjUwOSwwLDAsMCwuNDI3LDEuMDg3LDEuNjQ3LDEuNjQ3LDAsMCwwLDIuMDYuMjA2LDEuNTY0LDEuNTY0LDAsMCwwLC42ODUtMS4yOTNjMC0yLjYyLS4wMDUtNS4yNCwwLTcuODZxMy41ODMsNC4yOSw3LjE4MSw4LjU2OGEyLjgzMywyLjgzMywwLDAsMCwyLjYuNzgyLDEuNTYxLDEuNTYxLDAsMCwwLDEuMjUxLTEuMzcxcS4wMDgtNS41NDEsMC0xMS4wODFhMS41ODIsMS41ODIsMCwwLDAtMy4xNTIsMGMwLDIuNjYyLS4wMTYsNS4zMjEsMCw3Ljk4Mi0yLjM0Ni0yLjc2Ni00LjY2My01LjU1Ni03LTguMzMyQTIuODE3LDIuODE3LDAsMCwwLDEwLjE3LDkuMDMzLDEuNTc5LDEuNTc5LDAsMCwwLDguNzY3LDEwLjUzOFoiLz48L3N2Zz4=;" parent="dYVZeftza5Ptzcx6qMnq-10" vertex="1">
          <mxGeometry x="14" y="6" width="40" height="40" as="geometry" />
        </mxCell>
        <mxCell id="dYVZeftza5Ptzcx6qMnq-12" value="keycloak" style="rounded=1;whiteSpace=wrap;html=1;arcSize=10;verticalAlign=bottom;" parent="1" vertex="1">
          <mxGeometry x="500" y="180" width="70" height="60" as="geometry" />
        </mxCell>
        <mxCell id="dYVZeftza5Ptzcx6qMnq-14" value="" style="shape=image;verticalLabelPosition=bottom;labelBackgroundColor=default;verticalAlign=top;aspect=fixed;imageAspect=0;image=data:image/svg+xml,PHN2ZyB2aWV3Qm94PSIwIDAgNDQuMjE2IDM5Ljg2MSIgaGVpZ2h0PSIxNTAuNjU4IiB3aWR0aD0iMTY3LjExNyIgeG1sbnM9Imh0dHA6Ly93d3cudzMub3JnLzIwMDAvc3ZnIj48cGF0aCB0cmFuc2Zvcm09InRyYW5zbGF0ZSgtODIuODE1IC0xMjguNTg4KSIgc3R5bGU9ImRpc3BsYXk6aW5saW5lO2ZpbGw6IzRkNGQ0ZDtmaWxsLW9wYWNpdHk6MTtzdHJva2Utd2lkdGg6LjI2NDU4MyIgZD0ibTg4LjYxIDEzOC40NTYgNS43MTYtOS44NjUgMjMuMDE4LS4wMDQgNS42ODYgOS45NjUuMDA3IDE5LjkzMi01LjY5MSA5Ljk1Ny0yMy4wMTIuMDA4LTUuNzgyLTkuOTY1eiIvPjxwYXRoIHRyYW5zZm9ybT0idHJhbnNsYXRlKC04Mi44MTUgLTEyOC41ODgpIiBzdHlsZT0iZmlsbDojZWRlZGVkO2ZpbGwtb3BhY2l0eToxO2ZpbGwtcnVsZTpub256ZXJvO3N0cm9rZTpub25lO3N0cm9rZS13aWR0aDouMzMwNzI5IiBkPSJNODguNTUyIDE1OC40ODFoMTAuMzc1bC01LjY5OS0xMC4wNDEgNC42MzQtOS45ODItOS4yNTItLjAwMi01Ljc5NSAxMC4wNjUiLz48cGF0aCB0cmFuc2Zvcm09InRyYW5zbGF0ZSgtODIuODE1IC0xMjguNTg4KSIgc3R5bGU9ImZpbGw6I2UwZTBlMDtmaWxsLW9wYWNpdHk6MTtmaWxsLXJ1bGU6bm9uemVybztzdHJva2U6bm9uZTtzdHJva2Utd2lkdGg6LjMzMDcyOSIgZD0iTTEwMi4wNzMgMTU4LjQ4MWg3LjU4Mmw2LjcwNi05Ljc3My02LjU4OS0xMC4xNTZoLTguOTIxbC01LjM3MyA5LjgxNHoiLz48cGF0aCB0cmFuc2Zvcm09InRyYW5zbGF0ZSgtODIuODE1IC0xMjguNTg4KSIgc3R5bGU9ImZpbGw6I2FjYWNhYztmaWxsLW9wYWNpdHk6MTtmaWxsLXJ1bGU6bm9uemVybztzdHJva2U6bm9uZTtzdHJva2Utd2lkdGg6LjMzMDcyOSIgZD0ibTgyLjgxNSAxNDguNTIgNS43MzggOS45NjRoMTAuMzc0bC01LjYzNi05LjkzeiIvPjxwYXRoIHRyYW5zZm9ybT0idHJhbnNsYXRlKC04Mi44MTUgLTEyOC41ODgpIiBzdHlsZT0iZmlsbDojOWU5ZTllO2ZpbGwtb3BhY2l0eToxO2ZpbGwtcnVsZTpub256ZXJvO3N0cm9rZTpub25lO3N0cm9rZS13aWR0aDouMzMwNzI5IiBkPSJtOTUuNTg5IDE0OC41MjIgNi40ODQgOS45NjNoNy41ODJsNi42MDEtOS45NTl6Ii8+PHBhdGggdHJhbnNmb3JtPSJ0cmFuc2xhdGUoLTgyLjgxNSAtMTI4LjU4OCkiIHN0eWxlPSJmaWxsOiMwMGI4ZTM7ZmlsbC1vcGFjaXR5OjE7ZmlsbC1ydWxlOm5vbnplcm87c3Ryb2tlOm5vbmU7c3Ryb2tlLXdpZHRoOi4zMzA3MjkiIGQ9Im05OC4xNTcgMTQ4LjUyOS0xLjk1OC41NjktMS44NzctLjU3MiA3LjY2Ny0xMy4yODggMS45MTggMy4zMTYiLz48cGF0aCB0cmFuc2Zvcm09InRyYW5zbGF0ZSgtODIuODE1IC0xMjguNTg4KSIgc3R5bGU9ImZpbGw6IzMzYzZlOTtmaWxsLW9wYWNpdHk6MTtmaWxsLXJ1bGU6bm9uemVybztzdHJva2U6bm9uZTtzdHJva2Utd2lkdGg6LjMzMDcyOSIgZD0ibTEwMy45IDE1OC40ODItMS45MDkgMy4zMzItNS4wOTMtNS40ODctMi41OC03Ljc5N3YtLjAwNGgzLjgzOCIvPjxwYXRoIHRyYW5zZm9ybT0idHJhbnNsYXRlKC04Mi44MTUgLTEyOC41ODgpIiBzdHlsZT0iZmlsbDojMDA4YWFhO2ZpbGwtb3BhY2l0eToxO2ZpbGwtcnVsZTpub256ZXJvO3N0cm9rZTpub25lO3N0cm9rZS13aWR0aDouMzMwNzI5IiBkPSJNOTQuMzIyIDE0OC41MjZoLS4wMDN2LjAwM2wtMS45MTggMy4zMjItMS45MjUtMy4zMDcgMS45NTItMy4zODYgNS43MjgtOS45MmgzLjgzNCIvPjxwYXRoIHRyYW5zZm9ybT0idHJhbnNsYXRlKC04Mi44MTUgLTEyOC41ODgpIiBzdHlsZT0iZmlsbDojZDRkNGQ0O2ZpbGwtb3BhY2l0eToxO2ZpbGwtcnVsZTpub256ZXJvO3N0cm9rZTpub25lO3N0cm9rZS13aWR0aDouMzMwNzI5IiBkPSJNMTE1LjQyIDE1OC40ODFoMTEuNjExbC0uMDA3LTE5LjkzaC0xMS42MDV6Ii8+PHBhdGggdHJhbnNmb3JtPSJ0cmFuc2xhdGUoLTgyLjgxNSAtMTI4LjU4OCkiIHN0eWxlPSJmaWxsOiM5MTkxOTE7ZmlsbC1vcGFjaXR5OjE7ZmlsbC1ydWxlOm5vbnplcm87c3Ryb2tlOm5vbmU7c3Ryb2tlLXdpZHRoOi4zMzA3MjkiIGQ9Ik0xMTUuNDIgMTQ4LjU1NHY5LjkzaDExLjU5di05LjkzeiIvPjxwYXRoIHRyYW5zZm9ybT0idHJhbnNsYXRlKC04Mi44MTUgLTEyOC41ODgpIiBzdHlsZT0iZmlsbDojMDBiOGUzO2ZpbGwtb3BhY2l0eToxO2ZpbGwtcnVsZTpub256ZXJvO3N0cm9rZTpub25lO3N0cm9rZS13aWR0aDouMzMwNzI5IiBkPSJNMTAxLjk5MiAxNjEuODE3aC0zLjgzNmwtNS43NTUtOS45NjYgMS45MTgtMy4zMjF6Ii8+PHBhdGggdHJhbnNmb3JtPSJ0cmFuc2xhdGUoLTgyLjgxNSAtMTI4LjU4OCkiIHN0eWxlPSJmaWxsOiMwMDhhYWE7ZmlsbC1vcGFjaXR5OjE7ZmlsbC1ydWxlOm5vbnplcm87c3Ryb2tlOm5vbmU7c3Ryb2tlLXdpZHRoOi4zMzA3MjkiIGQ9Im0xMTcuMzMzIDE0OC41MjYtNy42NjkgMTMuMjg5Yy0uNzA1LTEuMDM2LTEuOTEzLTMuMzMxLTEuOTEzLTMuMzMxbDUuNzUzLTkuOTU5eiIvPjxwYXRoIHRyYW5zZm9ybT0idHJhbnNsYXRlKC04Mi44MTUgLTEyOC41ODgpIiBzdHlsZT0iZmlsbDojMDBiOGUzO2ZpbGwtb3BhY2l0eToxO2ZpbGwtcnVsZTpub256ZXJvO3N0cm9rZTpub25lO3N0cm9rZS13aWR0aDouMzMwNzI5IiBkPSJtMTEzLjQ5NSAxNjEuODE1LTMuODMxLS4wMDEgNy42Ny0xMy4yODggMS45MTctMy4zMTcgMS45MjEgMy4zNG0tMy44MzktLjAyM2gtMy44MjhsLTUuNzU1LTkuOTczIDEuOTA1LTMuMzE0IDQuNjU4IDUuOTIyeiIvPjxwYXRoIHRyYW5zZm9ybT0idHJhbnNsYXRlKC04Mi44MTUgLTEyOC41ODgpIiBzdHlsZT0iZmlsbDojMzNjNmU5O2ZpbGwtb3BhY2l0eToxO2ZpbGwtcnVsZTpub256ZXJvO3N0cm9rZTpub25lO3N0cm9rZS13aWR0aDouMzMwNzI5IiBkPSJNMTE5LjI1IDE0NS4yMDV2LjAwM2wtMS45MTcgMy4zMTgtNy42NzctMTMuMjg2IDMuODQxLjAwMnoiLz48L3N2Zz4=;" parent="1" vertex="1">
          <mxGeometry x="518.4100000000001" y="190" width="33.18" height="30" as="geometry" />
        </mxCell>
        <mxCell id="dYVZeftza5Ptzcx6qMnq-59" style="edgeStyle=orthogonalEdgeStyle;rounded=0;orthogonalLoop=1;jettySize=auto;html=1;exitX=0.5;exitY=1;exitDx=0;exitDy=0;entryX=1;entryY=0.25;entryDx=0;entryDy=0;" parent="1" source="dYVZeftza5Ptzcx6qMnq-15" target="dYVZeftza5Ptzcx6qMnq-25" edge="1">
          <mxGeometry relative="1" as="geometry" />
        </mxCell>
        <mxCell id="dYVZeftza5Ptzcx6qMnq-60" style="edgeStyle=orthogonalEdgeStyle;rounded=0;orthogonalLoop=1;jettySize=auto;html=1;exitX=0.5;exitY=1;exitDx=0;exitDy=0;entryX=1;entryY=0.25;entryDx=0;entryDy=0;" parent="1" source="dYVZeftza5Ptzcx6qMnq-15" target="dYVZeftza5Ptzcx6qMnq-31" edge="1">
          <mxGeometry relative="1" as="geometry" />
        </mxCell>
        <mxCell id="dYVZeftza5Ptzcx6qMnq-15" value="memcached" style="rounded=1;whiteSpace=wrap;html=1;arcSize=10;verticalAlign=bottom;" parent="1" vertex="1">
          <mxGeometry x="610" y="280" width="70" height="60" as="geometry" />
        </mxCell>
        <mxCell id="dYVZeftza5Ptzcx6qMnq-19" value="" style="shape=image;verticalLabelPosition=bottom;labelBackgroundColor=default;verticalAlign=top;aspect=fixed;imageAspect=0;image=data:image/svg+xml,PHN2ZyB4bWxuczp4bGluaz0iaHR0cDovL3d3dy53My5vcmcvMTk5OS94bGluayIgeG1sbnM9Imh0dHA6Ly93d3cudzMub3JnLzIwMDAvc3ZnIiB2ZXJzaW9uPSIxLjEiIHZpZXdCb3g9IjAgMCAyNTQgMjU0IiBoZWlnaHQ9IjgwMHB4IiB3aWR0aD0iODAwcHgiPiYjeGE7ICAgIDxkZWZzPiYjeGE7ICAgICAgICA8bGluZWFyR3JhZGllbnQgaWQ9ImxpbmVhckdyYWRpZW50LTEiIHkyPSItMy41MDAwMDAwNWUtMDYlIiB4Mj0iNTAuMDAwMDA2MSUiIHkxPSIxMDAlIiB4MT0iNTAuMDAwMDA2MSUiPiYjeGE7ICAgICAgICAgICAgPHN0b3Agb2Zmc2V0PSIwJSIgc3RvcC1jb2xvcj0iIzU3NEM0QSI+JiN4YTsmI3hhOzwvc3RvcD4mI3hhOyAgICAgICAgICAgIDxzdG9wIG9mZnNldD0iMTAwJSIgc3RvcC1jb2xvcj0iIzgwNzE2RCI+JiN4YTsmI3hhOzwvc3RvcD4mI3hhOyAgICAgICAgPC9saW5lYXJHcmFkaWVudD4mI3hhOyAgICAgICAgPGxpbmVhckdyYWRpZW50IGlkPSJsaW5lYXJHcmFkaWVudC0yIiB5Mj0iLTguNjc5ODk5OTQlIiB4Mj0iMzAuMTQ5NDk4NiUiIHkxPSI5OC4zNDIxMjU3JSIgeDE9Ijg4Ljc3ODIxNCUiPiYjeGE7ICAgICAgICAgICAgPHN0b3Agb2Zmc2V0PSIwJSIgc3RvcC1jb2xvcj0iIzI2OEQ4MyI+JiN4YTsmI3hhOzwvc3RvcD4mI3hhOyAgICAgICAgICAgIDxzdG9wIG9mZnNldD0iMTAwJSIgc3RvcC1jb2xvcj0iIzJFQTE5RSI+JiN4YTsmI3hhOzwvc3RvcD4mI3hhOyAgICAgICAgPC9saW5lYXJHcmFkaWVudD4mI3hhOyAgICAgICAgPHJhZGlhbEdyYWRpZW50IGlkPSJyYWRpYWxHcmFkaWVudC0zIiByPSI1MCUiIGZ5PSI0Mi43MDgzMzMzJSIgZng9IjQxLjQwNjMzMzMlIiBjeT0iNDIuNzA4MzMzMyUiIGN4PSI0MS40MDYzMzMzJSI+JiN4YTsgICAgICAgICAgICA8c3RvcCBvZmZzZXQ9IjAlIiBzdG9wLWNvbG9yPSIjREI3QzdDIj4mI3hhOyYjeGE7PC9zdG9wPiYjeGE7ICAgICAgICAgICAgPHN0b3Agb2Zmc2V0PSIxMDAlIiBzdG9wLWNvbG9yPSIjQzgzNzM3Ij4mI3hhOyYjeGE7PC9zdG9wPiYjeGE7ICAgICAgICA8L3JhZGlhbEdyYWRpZW50PiYjeGE7ICAgICAgICA8cmFkaWFsR3JhZGllbnQgaWQ9InJhZGlhbEdyYWRpZW50LTQiIHI9IjUwJSIgZnk9IjQyLjcwODMzMzMlIiBmeD0iNDQuMjcwODMzMyUiIGN5PSI0Mi43MDgzMzMzJSIgY3g9IjQ0LjI3MDgzMzMlIj4mI3hhOyAgICAgICAgICAgIDxzdG9wIG9mZnNldD0iMCUiIHN0b3AtY29sb3I9IiNEQjdDN0MiPiYjeGE7JiN4YTs8L3N0b3A+JiN4YTsgICAgICAgICAgICA8c3RvcCBvZmZzZXQ9IjEwMCUiIHN0b3AtY29sb3I9IiNDODM3MzciPiYjeGE7JiN4YTs8L3N0b3A+JiN4YTsgICAgICAgIDwvcmFkaWFsR3JhZGllbnQ+JiN4YTsgICAgPC9kZWZzPiYjeGE7ICAgICAgICA8Zz4mI3hhOyAgICAgICAgICAgIDxwYXRoIGZpbGw9InVybCgjbGluZWFyR3JhZGllbnQtMSkiIGQ9Ik0wLDE3MS4xODk3NiBMMCw4Mi4xNzEwOTExIEMwLDEwLjI3MTQwNjIgMTAuMjYwNzE3NSwyLjYzOTE3NTI1ZS0wNSA4Mi4wODYzMjA4LDIuNjM5MTc1MjVlLTA1IEwxNzEuMjc0ODIxLDIuNjM5MTc1MjVlLTA1IEMyNDMuMTAwMTYsMi42MzkxNzUyNWUtMDUgMjUzLjM2MDgyNSwxMC4yNzE0MDYyIDI1My4zNjA4MjUsODIuMTcxMDkxMSBMMjUzLjM2MDgyNSwxNzEuMTg5NzYgQzI1My4zNjA4MjUsMjQzLjA4OTQ3MSAyNDMuMTAwMTYsMjUzLjM2MDg1MSAxNzEuMjc0ODIxLDI1My4zNjA4NTEgTDgyLjA4NjMyMDgsMjUzLjM2MDg1MSBDMTAuMjYwNzE3NSwyNTMuMzYwODUxIDAsMjQzLjA4OTQ3MSAwLDE3MS4xODk3NiBMMCwxNzEuMTg5NzYgWiI+JiN4YTsmI3hhOzwvcGF0aD4mI3hhOyAgICAgICAgICAgIDxnIHRyYW5zZm9ybT0idHJhbnNsYXRlKDQ1Ljc4OTIyMywgNDcuMDk3NjQ4KSI+JiN4YTsgICAgICAgICAgICAgICAgPHBhdGggZmlsbD0idXJsKCNsaW5lYXJHcmFkaWVudC0yKSIgZD0iTTguODkxMjA0MTksMC42NTQ5MjE3NiBDLTMuNTYyNDE5OTMsNzkuNTgyNzY1IDIuOTUzMDU5ODQsMTUzLjQ3OTY2NSAyLjk1MzA1OTg0LDE1My40Nzk2NjUgTDQxLjg4MDg5NSwxNTMuNDc5NjY1IEMzOC4xNzY4OTk2LDEzMy43NzYyNDcgMjQuODg4OTk1Myw0My43NTYyNTExIDM1Ljk0Mjc1MDcsNDMuNDU5MDQ1NiBDNDEuODY2Njk4OSw0NC4zOTkzNDQyIDY4LjkzMjQ0MTUsMTE5LjgzMDE4IDY4LjkzMjQ0MTUsMTE5LjgzMDE4IEM2OC45MzI0NDE1LDExOS44MzAxOCA3NC44OTMwOTU0LDExOS4wODc5MTIgODAuODkxMjA0NCwxMTkuMDg3OTEyIEM4Ni44ODkzMTM1LDExOS4wODc5MTIgOTIuODQ5OTY3NCwxMTkuODMwMTggOTIuODQ5OTY3NCwxMTkuODMwMTggQzkyLjg0OTk2NzQsMTE5LjgzMDE4IDExOS45MTU3MTMsNDQuMzk5MzM2MyAxMjUuODM5NjU4LDQzLjQ1OTA0NTYgQzEzNi44OTM0MzcsNDMuNzU2MjMgMTIzLjYwNTQ5NiwxMzMuNzc2MjcxIDExOS45MDE1MTQsMTUzLjQ3OTY2NSBMMTU4LjgyOTM0OSwxNTMuNDc5NjY1IEMxNTguODI5MzQ5LDE1My40Nzk2NjUgMTY1LjM0NDgyNiw3OS41ODI3NDEzIDE1Mi44OTEyMDUsMC42NTQ5MjE3NiBMMTE2Ljg0OTk2NywwLjY1NDkyMTc2IEMxMDkuOTg5OTcsMC43MzYwNTc5MjYgODMuODkwMjg5Myw0Ni41MTA1OTIgODAuODkxMjA0NCw0Ni41MTA1OTIgQzc3Ljg5MjExOTYsNDYuNTEwNTkyIDUxLjc5MjQzOTEsMC43MzYwNTc5MjYgNDQuOTMyNDQxNCwwLjY1NDkyMTc2IEw4Ljg5MTIwNDE5LDAuNjU0OTIxNzYgTDguODkxMjA0MTksMC42NTQ5MjE3NiBaIj4mI3hhOyYjeGE7PC9wYXRoPiYjeGE7ICAgICAgICAgICAgICAgIDxwYXRoIGZpbGw9InVybCgjcmFkaWFsR3JhZGllbnQtMykiIGQ9Ik03My4yMTM1OTY3LDE0NC4yNjY1NjMgQzczLjIxMzU5NjcsMTQ5LjM1NDgyOSA2OS4wODg3NDIyLDE1My40Nzk2ODQgNjQuMDAwNDc2NCwxNTMuNDc5Njg0IEM1OC45MTIyMTA1LDE1My40Nzk2ODQgNTQuNzg3MzU2LDE0OS4zNTQ4MjkgNTQuNzg3MzU2LDE0NC4yNjY1NjMgQzU0Ljc4NzM1NiwxMzkuMTc4Mjk3IDU4LjkxMjIxMDUsMTM1LjA1MzQ0MyA2NC4wMDA0NzY0LDEzNS4wNTM0NDMgQzY5LjA4ODc0MjIsMTM1LjA1MzQ0MyA3My4yMTM1OTY3LDEzOS4xNzgyOTcgNzMuMjEzNTk2NywxNDQuMjY2NTYzIEw3My4yMTM1OTY3LDE0NC4yNjY1NjMgWiI+JiN4YTsmI3hhOzwvcGF0aD4mI3hhOyAgICAgICAgICAgICAgICA8cGF0aCBmaWxsPSJ1cmwoI3JhZGlhbEdyYWRpZW50LTQpIiBkPSJNMTA2Ljk5NTAzOCwxNDQuMjY2NTYzIEMxMDYuOTk1MDM4LDE0OS4zNTQ4MjkgMTAyLjg3MDE4NCwxNTMuNDc5Njg0IDk3Ljc4MTkxNzgsMTUzLjQ3OTY4NCBDOTIuNjkzNjUxOSwxNTMuNDc5Njg0IDg4LjU2ODc5NzQsMTQ5LjM1NDgyOSA4OC41Njg3OTc0LDE0NC4yNjY1NjMgQzg4LjU2ODc5NzQsMTM5LjE3ODI5NyA5Mi42OTM2NTE5LDEzNS4wNTM0NDMgOTcuNzgxOTE3OCwxMzUuMDUzNDQzIEMxMDIuODcwMTg0LDEzNS4wNTM0NDMgMTA2Ljk5NTAzOCwxMzkuMTc4Mjk3IDEwNi45OTUwMzgsMTQ0LjI2NjU2MyBMMTA2Ljk5NTAzOCwxNDQuMjY2NTYzIFoiPiYjeGE7JiN4YTs8L3BhdGg+JiN4YTsgICAgICAgICAgICAgICAgPHBhdGggZmlsbD0iIzAwMDAwMCIgb3BhY2l0eT0iMC4xIiBkPSJNMTUxLjA1NjMxOCwzLjI2NDE5MjUzIEMxNTYuNjc0MTkxLDQxLjI5MDEyOTIgMTU3Ljk5MjI4NCw3Ny43ODQ5MDA4IDE1Ny44ODg4ODksMTA0Ljk2OTQ2NyBDMTU3Ljc4MzEzMiwxMzIuNzc1MjcxIDE1Ni4xOTAxNzQsMTUwLjg0MDQ4OSAxNTYuMTkwMTc0LDE1MC44NDA0ODkgTDEyMy40MjMxMTMsMTUwLjg0MDQ4OSBMMTE5LjkwMTUxNCwxNTMuNDc5NjY1IEwxNTguODI5MzQ5LDE1My40Nzk2NjUgQzE1OC44MjkzNDksMTUzLjQ3OTY2NSAxNjUuMzQ0ODI2LDc5LjU4Mjc0MTMgMTUyLjg5MTIwNSwwLjY1NDkyMTc2IEwxNTEuMDU2MzE4LDMuMjY0MTkyNTMgWiBNNDcuOTAxNTEzNiwyLjMwNDQwNjMgQzU4LjEyNzkyMTksMTMuNjc5ODAzMyA3NS44MTUyNzM0LDQzLjg3MTQxNjggNzguMjUyMDI5Miw0My44NzE0MTY4IEM3MS43Njc4MDUyLDM1LjU3ODU3MTIgNTUuODQwNTE5Nyw5LjEyMjcwNzY5IDQ3LjkwMTUxMzYsMi4zMDQ0MDYzIEw0Ny45MDE1MTM2LDIuMzA0NDA2MyBaIE0zMy4zMDM1NzU0LDQwLjgxOTg3MDQgQzIyLjI0OTgyNzksNDEuMTE3MDg2NCAzNS41Mzc3Mzc2LDEzMS4xMzcwNjQgMzkuMjQxNzE5OCwxNTAuODQwNDg5IEw1LjI1OTYyNzc3LDE1MC44NDA0ODkgTDIuOTUzMDU5ODQsMTUzLjQ3OTY2NSBMNDEuODgwODk1LDE1My40Nzk2NjUgQzM4LjE5NTY2OTUsMTMzLjg3NjA5NSAyNS4wMjQ2NTE1LDQ0LjY1NTM5OTYgMzUuNzc3ODAyMiw0My40NTkwNDU2IEMzNC43NzY0NTk1LDQxLjk1NTE3NzYgMzMuOTExNTk5Miw0MC45MTYzNzk3IDMzLjMwMzU3NTQsNDAuODE5ODcwNCBMMzMuMzAzNTc1NCw0MC44MTk4NzA0IFogTTEyMy4yMDA0ODMsNDAuODE5ODcwNCBDMTE3LjI3NjUzNyw0MS43NjAxNjEgOTAuMjEwNzkyMSwxMTcuMTkxMDA1IDkwLjIxMDc5MjEsMTE3LjE5MTAwNSBDOTAuMjEwNzkyMSwxMTcuMTkxMDA1IDg0LjI1MDEzODIsMTE2LjQ0ODczNyA3OC4yNTIwMjkyLDExNi40NDg3MzcgQzc0LjcwMzA1ODksMTE2LjQ0ODczNyA3MS42NDc3MzMyLDExNi42Njc0MTkgNjkuNTgxNjY4MSwxMTYuODU5OTQ2IEw2OC45MzI0NDE1LDExOS44MzAxOCBDNjguOTMyNDQxNSwxMTkuODMwMTggNzQuODkzMDk1NCwxMTkuMDg3OTEyIDgwLjg5MTIwNDQsMTE5LjA4NzkxMiBDODYuODg5MzEzNSwxMTkuMDg3OTEyIDkyLjg0OTk2NzQsMTE5LjgzMDE4IDkyLjg0OTk2NzQsMTE5LjgzMDE4IEM5Mi44NDk5Njc0LDExOS44MzAxOCAxMTkuNzExODk3LDQ0Ljg5NDE3MTEgMTI1Ljc1NzE4NCw0My40NTkwNDU2IEMxMjUuMTA1NzY0LDQxLjgwODg4ODEgMTI0LjMwMDkyNyw0MC44NDk0NjYxIDEyMy4yMDA0ODMsNDAuODE5ODcwNCBMMTIzLjIwMDQ4Myw0MC44MTk4NzA0IFoiPiYjeGE7JiN4YTs8L3BhdGg+JiN4YTsgICAgICAgICAgICAgICAgPHBhdGggZmlsbD0iI0ZGRkZGRiIgb3BhY2l0eT0iMC4zIiBkPSJNOC44OTEyMDQxOSwwLjY1NDkyMTc2IEMtMy41NjI0MTk5Myw3OS41ODI3NjUgMi45NTMwNTk4NCwxNTMuNDc5NjY1IDIuOTUzMDU5ODQsMTUzLjQ3OTY2NSBMNS4yNDUyMDk5NiwxNTAuOTAzMjY3IEM0LjA3MjI4NjU3LDEzMy40Njg5NDQgMC45Mzg1OTU4MzcsNzAuNDIyMDcxNSAxMS41MzAzNzk1LDMuMjk0MDk3MDMgTDQ3LjU3MTYxNjcsMy4yOTQwOTcwMyBDNDguMzM1MTIyMiwzLjMwMzA3MDIyIDQ5LjM1ODkwMDUsMy45Mjg2MTgxIDUwLjU0MDY4ODksNC45NDM1ODE1NyBDNDguMTgwNzQ4OSwyLjMxODQ4ODk0IDQ2LjIxODY5MSwwLjY3MDEzMzk2NyA0NC45MzI0NDE0LDAuNjU0OTIxNzYgTDguODkxMjA0MTksMC42NTQ5MjE3NiBaIE0xMTYuODQ5OTY3LDAuNjU0OTIxNzYgQzEwOS45ODk5NywwLjczNjA1MDAwOCA4My44OTAyODkzLDQ2LjUxMDU5MiA4MC44OTEyMDQ0LDQ2LjUxMDU5MiBDODIuMTE0MjI0Nyw0OC4wNzQ3NDE1IDgzLjEwNzQzODcsNDkuMTQ5NzY3MyA4My41MzAzNzk3LDQ5LjE0OTc2NzMgQzg2LjUyOTQ2NDYsNDkuMTQ5NzY3MyAxMTIuNjI5MTQ1LDMuMzc1MTcyNDkgMTE5LjQ4OTE0MywzLjI5NDA5NzAzIEwxNTEuMjk0ODEyLDMuMjk0MDk3MDMgTDE1Mi44OTEyMDUsMC42NTQ5MjE3NiBMMTE2Ljg0OTk2NywwLjY1NDkyMTc2IFogTTM4LjQxNjk3NzUsNDYuMDk4MjIwOSBDNDcuMTcxNjU1LDU5LjI0NjQ2MjcgNjguOTMyNDQxNSwxMTkuODMwMTggNjguOTMyNDQxNSwxMTkuODMwMTggTDY5LjU2OTE3OTUsMTE2Ljg3NTk4NSBDNjQuMTk2NTMxMiwxMDIuMTQzODg0IDQzLjcyNTIxNCw0Ni45MTQ1OTk2IDM4LjU4MTkyNTksNDYuMDk4MjIwOSBDMzguNTI1OTA5NSw0Ni4wOTk3Mjc5IDM4LjQ3MTc0ODMsNDYuMDkyMTI3IDM4LjQxNjk3NzUsNDYuMDk4MjIwOSBMMzguNDE2OTc3NSw0Ni4wOTgyMjA5IFogTTEyOC40Nzg4MzMsNDYuMDk4MjIwOSBDMTM0LjM1MTA1Nyw2MS4wNzU0NDU1IDEyMy4yMzUwOTgsMTM1Ljc0NjYxIDExOS45MDE1MTQsMTUzLjQ3OTY2NSBMMTIzLjQzMjgyNSwxNTAuNzIzMzczIEMxMjcuOTQwNDYzLDEyNC4yNzY5NTggMTM4Ljc5NDY4Niw0Ni4zNzU2NTEgMTI4LjQ3ODgzMyw0Ni4wOTgyMjA5IEwxMjguNDc4ODMzLDQ2LjA5ODIyMDkgWiI+JiN4YTsmI3hhOzwvcGF0aD4mI3hhOyAgICAgICAgICAgIDwvZz4mI3hhOyAgICAgICAgPC9nPiYjeGE7PC9zdmc+;" parent="1" vertex="1">
          <mxGeometry x="630" y="290" width="30" height="30" as="geometry" />
        </mxCell>
        <mxCell id="dYVZeftza5Ptzcx6qMnq-56" style="edgeStyle=orthogonalEdgeStyle;rounded=0;orthogonalLoop=1;jettySize=auto;html=1;exitX=0.5;exitY=0;exitDx=0;exitDy=0;entryX=0.5;entryY=1;entryDx=0;entryDy=0;startArrow=classic;startFill=1;" parent="1" source="dYVZeftza5Ptzcx6qMnq-21" target="dYVZeftza5Ptzcx6qMnq-12" edge="1">
          <mxGeometry relative="1" as="geometry" />
        </mxCell>
        <mxCell id="dYVZeftza5Ptzcx6qMnq-57" style="edgeStyle=orthogonalEdgeStyle;rounded=0;orthogonalLoop=1;jettySize=auto;html=1;exitX=1;exitY=0.5;exitDx=0;exitDy=0;entryX=0;entryY=0.5;entryDx=0;entryDy=0;" parent="1" source="dYVZeftza5Ptzcx6qMnq-21" target="dYVZeftza5Ptzcx6qMnq-15" edge="1">
          <mxGeometry relative="1" as="geometry" />
        </mxCell>
        <mxCell id="dYVZeftza5Ptzcx6qMnq-21" value="NodeJS" style="rounded=1;whiteSpace=wrap;html=1;arcSize=10;verticalAlign=bottom;" parent="1" vertex="1">
          <mxGeometry x="500" y="280" width="70" height="60" as="geometry" />
        </mxCell>
        <mxCell id="dYVZeftza5Ptzcx6qMnq-22" value="" style="shape=image;verticalLabelPosition=bottom;labelBackgroundColor=default;verticalAlign=top;aspect=fixed;imageAspect=0;image=data:image/svg+xml,PHN2ZyBwcmVzZXJ2ZUFzcGVjdFJhdGlvPSJ4TWlkWU1pZCIgeG1sbnM6eGxpbms9Imh0dHA6Ly93d3cudzMub3JnLzE5OTkveGxpbmsiIHhtbG5zPSJodHRwOi8vd3d3LnczLm9yZy8yMDAwL3N2ZyIgdmVyc2lvbj0iMS4xIiB2aWV3Qm94PSIwIDAgMjU2IDI4OSIgaGVpZ2h0PSIyODlweCIgd2lkdGg9IjI1NnB4Ij4mI3hhOyAgICA8Zz4mI3hhOyAgICAgICAgPHBhdGggZmlsbD0iIzUzOUU0MyIgZD0iTTEyNy45OTk5OTksMjg4LjQ2Mzc3MSBDMTI0LjAyNDg0NCwyODguNDYzNzcxIDEyMC4zMTQ2OTksMjg3LjQwMzcyOCAxMTYuODY5NTY0LDI4NS41NDg2NTYgTDgxLjYyMzE4ODQsMjY0LjYxMjgzOCBDNzYuMzIyOTgsMjYxLjY5NzcyNCA3OC45NzMwODU0LDI2MC42Mzc2ODIgODAuNTYzMTQ1OCwyNjAuMTA3NjYxIEM4Ny43MTg0MjU5LDI1Ny43MjI1NyA4OS4wNDM0Nzc1LDI1Ny4xOTI1NDcgOTYuNDYzNzY4OCwyNTIuOTUyMzgxIEM5Ny4yNTg3OTc5LDI1Mi40MjIzNjEgOTguMzE4ODQwNSwyNTIuNjg3MzcyIDk5LjExMzg3MTgsMjUzLjIxNzM5MiBMMTI2LjE0NDkyNywyNjkuMzgzMDI0IEMxMjcuMjA0OTcsMjY5LjkxMzA0NSAxMjguNTMwMDIxLDI2OS45MTMwNDUgMTI5LjMyNTA1MywyNjkuMzgzMDI0IEwyMzUuMDY0MTgyLDIwOC4xNjU2MzQgQzIzNi4xMjQyMjUsMjA3LjYzNTYxMSAyMzYuNjU0MjQ1LDIwNi41NzU1NzEgMjM2LjY1NDI0NSwyMDUuMjUwNTE5IEwyMzYuNjU0MjQ1LDgzLjA4MDc0NjcgQzIzNi42NTQyNDUsODEuNzU1NjkyOSAyMzYuMTI0MjI1LDgwLjY5NTY1MjYgMjM1LjA2NDE4Miw4MC4xNjU2MzI0IEwxMjkuMzI1MDUzLDE5LjIxMzI1MDYgQzEyOC4yNjUwMSwxOC42ODMyMzA1IDEyNi45Mzk5NTksMTguNjgzMjMwNSAxMjYuMTQ0OTI3LDE5LjIxMzI1MDYgTDIwLjQwNTc5NTQsODAuMTY1NjMyNCBDMTkuMzQ1NzU1MSw4MC42OTU2NTI2IDE4LjgxNTczNDksODIuMDIwNzA0MSAxOC44MTU3MzQ5LDgzLjA4MDc0NjcgTDE4LjgxNTczNDksMjA1LjI1MDUxOSBDMTguODE1NzM0OSwyMDYuMzEwNTYgMTkuMzQ1NzU1MSwyMDcuNjM1NjExIDIwLjQwNTc5NTQsMjA4LjE2NTYzNCBMNDkuMjkxOTI0NywyMjQuODYxMjg2IEM2NC45Mjc1MzY0LDIzMi44MTE1OTUgNzQuNzMyOTE5NiwyMjMuNTM2MjM0IDc0LjczMjkxOTYsMjE0LjI2MDg3MSBMNzQuNzMyOTE5Niw5My42ODExNTkgQzc0LjczMjkxOTYsOTIuMDkxMDk4NSA3Ni4wNTc5NzExLDkwLjUwMTAzNTggNzcuOTEzMDQyOCw5MC41MDEwMzU4IEw5MS40Mjg1NzE2LDkwLjUwMTAzNTggQzkzLjAxODYzNDMsOTAuNTAxMDM1OCA5NC42MDg2OTQ4LDkxLjgyNjA4NzMgOTQuNjA4Njk0OCw5My42ODExNTkgTDk0LjYwODY5NDgsMjE0LjI2MDg3MSBDOTQuNjA4Njk0OCwyMzUuMTk2Njg5IDgzLjIxMzI1MTIsMjQ3LjM4NzE2NCA2My4zMzc0NzM3LDI0Ny4zODcxNjQgQzU3LjI0MjIzNjIsMjQ3LjM4NzE2NCA1Mi40NzIwNTAyLDI0Ny4zODcxNjQgMzguOTU2NTIxNCwyNDAuNzYxOTA2IEwxMS4xMzA0MzQ3LDIyNC44NjEyODYgQzQuMjQwMTY1ODEsMjIwLjg4NjEyOSA1LjY4NDM0MTg5ZS0xNCwyMTMuNDY1ODQgNS42ODQzNDE4OWUtMTQsMjA1LjUxNTUyOCBMNS42ODQzNDE4OWUtMTQsODMuMzQ1NzU1NyBDNS42ODQzNDE4OWUtMTQsNzUuMzk1NDQ2NSA0LjI0MDE2NTgxLDY3Ljk3NTE1NTIgMTEuMTMwNDM0Nyw2NC4wMDAwMDA2IEwxMTYuODY5NTY0LDIuNzgyNjA3NTIgQzEyMy40OTQ4MjQsLTAuOTI3NTM1ODQxIDEzMi41MDUxNzYsLTAuOTI3NTM1ODQxIDEzOS4xMzA0MzYsMi43ODI2MDc1MiBMMjQ0Ljg2OTU2NSw2NC4wMDAwMDA2IEMyNTEuNzU5ODM0LDY3Ljk3NTE1NTIgMjU2LDc1LjM5NTQ0NjUgMjU2LDgzLjM0NTc1NTcgTDI1NiwyMDUuNTE1NTI4IEMyNTYsMjEzLjQ2NTg0IDI1MS43NTk4MzQsMjIwLjg4NjEyOSAyNDQuODY5NTY1LDIyNC44NjEyODYgTDEzOS4xMzA0MzYsMjg2LjA3ODY3NiBDMTM1LjY4NTI5OSwyODcuNjY4NzM5IDEzMS43MTAxNDUsMjg4LjQ2Mzc3MSAxMjcuOTk5OTk5LDI4OC40NjM3NzEgTDEyNy45OTk5OTksMjg4LjQ2Mzc3MSBaIE0xNjAuNTk2Mjc0LDIwNC40NTU0ODggQzExNC4yMTk0NjEsMjA0LjQ1NTQ4OCAxMDQuNjc5MDg5LDE4My4yNTQ2NTkgMTA0LjY3OTA4OSwxNjUuMjMzOTU1IEMxMDQuNjc5MDg5LDE2My42NDM4OTMgMTA2LjAwNDE0MSwxNjIuMDUzODMyIDEwNy44NTkyMTIsMTYyLjA1MzgzMiBMMTIxLjYzOTc1MiwxNjIuMDUzODMyIEMxMjMuMjI5ODEzLDE2Mi4wNTM4MzIgMTI0LjU1NDg2NCwxNjMuMTEzODcyIDEyNC41NTQ4NjQsMTY0LjcwMzkzNSBDMTI2LjY3NDk0NywxNzguNzQ5NDg0IDEzMi43NzAxODcsMTg1LjYzOTc1MyAxNjAuODYxMjgzLDE4NS42Mzk3NTMgQzE4My4xMjIxNTQsMTg1LjYzOTc1MyAxOTIuNjYyNTI2LDE4MC42MDQ1NTYgMTkyLjY2MjUyNiwxNjguNjc5MDkgQzE5Mi42NjI1MjYsMTYxLjc4ODgyMSAxOTAuMDEyNDIzLDE1Ni43NTM2MjQgMTU1LjI5NjA2NSwxNTMuMzA4NDg5IEMxMjYuNDA5OTM4LDE1MC4zOTMzNzUgMTA4LjM4OTIzNSwxNDQuMDMzMTI2IDEwOC4zODkyMzUsMTIwLjk3NzIyNiBDMTA4LjM4OTIzNSw5OS41MTEzODc1IDEyNi40MDk5MzgsODYuNzkwODkwMSAxNTYuNjIxMTE5LDg2Ljc5MDg5MDEgQzE5MC41NDI0NDMsODYuNzkwODkwMSAyMDcuMjM4MDk1LDk4LjQ1MTM0NzIgMjA5LjM1ODE3OCwxMjMuODkyMzQgQzIwOS4zNTgxNzgsMTI0LjY4NzM3MSAyMDkuMDkzMTY3LDEyNS40ODI0MDMgMjA4LjU2MzE0NywxMjYuMjc3NDM0IEMyMDguMDMzMTI3LDEyNi44MDc0NTQgMjA3LjIzODA5NSwxMjcuMzM3NDc0IDIwNi40NDMwNjQsMTI3LjMzNzQ3NCBMMTkyLjY2MjUyNiwxMjcuMzM3NDc0IEMxOTEuMzM3NDc1LDEyNy4zMzc0NzQgMTkwLjAxMjQyMywxMjYuMjc3NDM0IDE4OS43NDc0MTIsMTI0Ljk1MjM4MiBDMTg2LjU2NzI4OSwxMTAuMzc2ODEzIDE3OC4zNTE5NjYsMTA1LjYwNjYyNSAxNTYuNjIxMTE5LDEwNS42MDY2MjUgQzEzMi4yNDAxNjUsMTA1LjYwNjYyNSAxMjkuMzI1MDUzLDExNC4wODY5NTcgMTI5LjMyNTA1MywxMjAuNDQ3MjA1IEMxMjkuMzI1MDUzLDEyOC4xMzI1MDYgMTMyLjc3MDE4NywxMzAuNTE3NiAxNjUuNjMxNDcxLDEzNC43NTc3NjYgQzE5OC4yMjc3NDQsMTM4Ljk5NzkzMSAyMTMuNTk4MzQ0LDE0NS4wOTMxNjkgMjEzLjU5ODM0NCwxNjcuODg0MDU4IEMyMTMuMzMzMzMzLDE5MS4yMDQ5NyAxOTQuMjUyNTg5LDIwNC40NTU0ODggMTYwLjU5NjI3NCwyMDQuNDU1NDg4IEwxNjAuNTk2Mjc0LDIwNC40NTU0ODggWiIvPiYjeGE7ICAgIDwvZz4mI3hhOzwvc3ZnPg==;" parent="1" vertex="1">
          <mxGeometry x="518" y="285" width="33.66" height="38" as="geometry" />
        </mxCell>
        <mxCell id="dYVZeftza5Ptzcx6qMnq-42" style="edgeStyle=orthogonalEdgeStyle;rounded=0;orthogonalLoop=1;jettySize=auto;html=1;exitX=0.5;exitY=1;exitDx=0;exitDy=0;entryX=0.5;entryY=0;entryDx=0;entryDy=0;" parent="1" source="dYVZeftza5Ptzcx6qMnq-25" target="dYVZeftza5Ptzcx6qMnq-31" edge="1">
          <mxGeometry relative="1" as="geometry" />
        </mxCell>
        <mxCell id="dYVZeftza5Ptzcx6qMnq-50" style="edgeStyle=orthogonalEdgeStyle;rounded=0;orthogonalLoop=1;jettySize=auto;html=1;exitX=1;exitY=0.5;exitDx=0;exitDy=0;entryX=0;entryY=0.5;entryDx=0;entryDy=0;" parent="1" source="dYVZeftza5Ptzcx6qMnq-25" target="dYVZeftza5Ptzcx6qMnq-27" edge="1">
          <mxGeometry relative="1" as="geometry">
            <mxPoint x="830" y="430" as="targetPoint" />
          </mxGeometry>
        </mxCell>
        <mxCell id="dYVZeftza5Ptzcx6qMnq-25" value="NodeJS" style="rounded=1;whiteSpace=wrap;html=1;arcSize=10;verticalAlign=bottom;" parent="1" vertex="1">
          <mxGeometry x="500" y="400" width="70" height="60" as="geometry" />
        </mxCell>
        <mxCell id="dYVZeftza5Ptzcx6qMnq-26" value="" style="shape=image;verticalLabelPosition=bottom;labelBackgroundColor=default;verticalAlign=top;aspect=fixed;imageAspect=0;image=data:image/svg+xml,PHN2ZyBwcmVzZXJ2ZUFzcGVjdFJhdGlvPSJ4TWlkWU1pZCIgeG1sbnM6eGxpbms9Imh0dHA6Ly93d3cudzMub3JnLzE5OTkveGxpbmsiIHhtbG5zPSJodHRwOi8vd3d3LnczLm9yZy8yMDAwL3N2ZyIgdmVyc2lvbj0iMS4xIiB2aWV3Qm94PSIwIDAgMjU2IDI4OSIgaGVpZ2h0PSIyODlweCIgd2lkdGg9IjI1NnB4Ij4mI3hhOyAgICA8Zz4mI3hhOyAgICAgICAgPHBhdGggZmlsbD0iIzUzOUU0MyIgZD0iTTEyNy45OTk5OTksMjg4LjQ2Mzc3MSBDMTI0LjAyNDg0NCwyODguNDYzNzcxIDEyMC4zMTQ2OTksMjg3LjQwMzcyOCAxMTYuODY5NTY0LDI4NS41NDg2NTYgTDgxLjYyMzE4ODQsMjY0LjYxMjgzOCBDNzYuMzIyOTgsMjYxLjY5NzcyNCA3OC45NzMwODU0LDI2MC42Mzc2ODIgODAuNTYzMTQ1OCwyNjAuMTA3NjYxIEM4Ny43MTg0MjU5LDI1Ny43MjI1NyA4OS4wNDM0Nzc1LDI1Ny4xOTI1NDcgOTYuNDYzNzY4OCwyNTIuOTUyMzgxIEM5Ny4yNTg3OTc5LDI1Mi40MjIzNjEgOTguMzE4ODQwNSwyNTIuNjg3MzcyIDk5LjExMzg3MTgsMjUzLjIxNzM5MiBMMTI2LjE0NDkyNywyNjkuMzgzMDI0IEMxMjcuMjA0OTcsMjY5LjkxMzA0NSAxMjguNTMwMDIxLDI2OS45MTMwNDUgMTI5LjMyNTA1MywyNjkuMzgzMDI0IEwyMzUuMDY0MTgyLDIwOC4xNjU2MzQgQzIzNi4xMjQyMjUsMjA3LjYzNTYxMSAyMzYuNjU0MjQ1LDIwNi41NzU1NzEgMjM2LjY1NDI0NSwyMDUuMjUwNTE5IEwyMzYuNjU0MjQ1LDgzLjA4MDc0NjcgQzIzNi42NTQyNDUsODEuNzU1NjkyOSAyMzYuMTI0MjI1LDgwLjY5NTY1MjYgMjM1LjA2NDE4Miw4MC4xNjU2MzI0IEwxMjkuMzI1MDUzLDE5LjIxMzI1MDYgQzEyOC4yNjUwMSwxOC42ODMyMzA1IDEyNi45Mzk5NTksMTguNjgzMjMwNSAxMjYuMTQ0OTI3LDE5LjIxMzI1MDYgTDIwLjQwNTc5NTQsODAuMTY1NjMyNCBDMTkuMzQ1NzU1MSw4MC42OTU2NTI2IDE4LjgxNTczNDksODIuMDIwNzA0MSAxOC44MTU3MzQ5LDgzLjA4MDc0NjcgTDE4LjgxNTczNDksMjA1LjI1MDUxOSBDMTguODE1NzM0OSwyMDYuMzEwNTYgMTkuMzQ1NzU1MSwyMDcuNjM1NjExIDIwLjQwNTc5NTQsMjA4LjE2NTYzNCBMNDkuMjkxOTI0NywyMjQuODYxMjg2IEM2NC45Mjc1MzY0LDIzMi44MTE1OTUgNzQuNzMyOTE5NiwyMjMuNTM2MjM0IDc0LjczMjkxOTYsMjE0LjI2MDg3MSBMNzQuNzMyOTE5Niw5My42ODExNTkgQzc0LjczMjkxOTYsOTIuMDkxMDk4NSA3Ni4wNTc5NzExLDkwLjUwMTAzNTggNzcuOTEzMDQyOCw5MC41MDEwMzU4IEw5MS40Mjg1NzE2LDkwLjUwMTAzNTggQzkzLjAxODYzNDMsOTAuNTAxMDM1OCA5NC42MDg2OTQ4LDkxLjgyNjA4NzMgOTQuNjA4Njk0OCw5My42ODExNTkgTDk0LjYwODY5NDgsMjE0LjI2MDg3MSBDOTQuNjA4Njk0OCwyMzUuMTk2Njg5IDgzLjIxMzI1MTIsMjQ3LjM4NzE2NCA2My4zMzc0NzM3LDI0Ny4zODcxNjQgQzU3LjI0MjIzNjIsMjQ3LjM4NzE2NCA1Mi40NzIwNTAyLDI0Ny4zODcxNjQgMzguOTU2NTIxNCwyNDAuNzYxOTA2IEwxMS4xMzA0MzQ3LDIyNC44NjEyODYgQzQuMjQwMTY1ODEsMjIwLjg4NjEyOSA1LjY4NDM0MTg5ZS0xNCwyMTMuNDY1ODQgNS42ODQzNDE4OWUtMTQsMjA1LjUxNTUyOCBMNS42ODQzNDE4OWUtMTQsODMuMzQ1NzU1NyBDNS42ODQzNDE4OWUtMTQsNzUuMzk1NDQ2NSA0LjI0MDE2NTgxLDY3Ljk3NTE1NTIgMTEuMTMwNDM0Nyw2NC4wMDAwMDA2IEwxMTYuODY5NTY0LDIuNzgyNjA3NTIgQzEyMy40OTQ4MjQsLTAuOTI3NTM1ODQxIDEzMi41MDUxNzYsLTAuOTI3NTM1ODQxIDEzOS4xMzA0MzYsMi43ODI2MDc1MiBMMjQ0Ljg2OTU2NSw2NC4wMDAwMDA2IEMyNTEuNzU5ODM0LDY3Ljk3NTE1NTIgMjU2LDc1LjM5NTQ0NjUgMjU2LDgzLjM0NTc1NTcgTDI1NiwyMDUuNTE1NTI4IEMyNTYsMjEzLjQ2NTg0IDI1MS43NTk4MzQsMjIwLjg4NjEyOSAyNDQuODY5NTY1LDIyNC44NjEyODYgTDEzOS4xMzA0MzYsMjg2LjA3ODY3NiBDMTM1LjY4NTI5OSwyODcuNjY4NzM5IDEzMS43MTAxNDUsMjg4LjQ2Mzc3MSAxMjcuOTk5OTk5LDI4OC40NjM3NzEgTDEyNy45OTk5OTksMjg4LjQ2Mzc3MSBaIE0xNjAuNTk2Mjc0LDIwNC40NTU0ODggQzExNC4yMTk0NjEsMjA0LjQ1NTQ4OCAxMDQuNjc5MDg5LDE4My4yNTQ2NTkgMTA0LjY3OTA4OSwxNjUuMjMzOTU1IEMxMDQuNjc5MDg5LDE2My42NDM4OTMgMTA2LjAwNDE0MSwxNjIuMDUzODMyIDEwNy44NTkyMTIsMTYyLjA1MzgzMiBMMTIxLjYzOTc1MiwxNjIuMDUzODMyIEMxMjMuMjI5ODEzLDE2Mi4wNTM4MzIgMTI0LjU1NDg2NCwxNjMuMTEzODcyIDEyNC41NTQ4NjQsMTY0LjcwMzkzNSBDMTI2LjY3NDk0NywxNzguNzQ5NDg0IDEzMi43NzAxODcsMTg1LjYzOTc1MyAxNjAuODYxMjgzLDE4NS42Mzk3NTMgQzE4My4xMjIxNTQsMTg1LjYzOTc1MyAxOTIuNjYyNTI2LDE4MC42MDQ1NTYgMTkyLjY2MjUyNiwxNjguNjc5MDkgQzE5Mi42NjI1MjYsMTYxLjc4ODgyMSAxOTAuMDEyNDIzLDE1Ni43NTM2MjQgMTU1LjI5NjA2NSwxNTMuMzA4NDg5IEMxMjYuNDA5OTM4LDE1MC4zOTMzNzUgMTA4LjM4OTIzNSwxNDQuMDMzMTI2IDEwOC4zODkyMzUsMTIwLjk3NzIyNiBDMTA4LjM4OTIzNSw5OS41MTEzODc1IDEyNi40MDk5MzgsODYuNzkwODkwMSAxNTYuNjIxMTE5LDg2Ljc5MDg5MDEgQzE5MC41NDI0NDMsODYuNzkwODkwMSAyMDcuMjM4MDk1LDk4LjQ1MTM0NzIgMjA5LjM1ODE3OCwxMjMuODkyMzQgQzIwOS4zNTgxNzgsMTI0LjY4NzM3MSAyMDkuMDkzMTY3LDEyNS40ODI0MDMgMjA4LjU2MzE0NywxMjYuMjc3NDM0IEMyMDguMDMzMTI3LDEyNi44MDc0NTQgMjA3LjIzODA5NSwxMjcuMzM3NDc0IDIwNi40NDMwNjQsMTI3LjMzNzQ3NCBMMTkyLjY2MjUyNiwxMjcuMzM3NDc0IEMxOTEuMzM3NDc1LDEyNy4zMzc0NzQgMTkwLjAxMjQyMywxMjYuMjc3NDM0IDE4OS43NDc0MTIsMTI0Ljk1MjM4MiBDMTg2LjU2NzI4OSwxMTAuMzc2ODEzIDE3OC4zNTE5NjYsMTA1LjYwNjYyNSAxNTYuNjIxMTE5LDEwNS42MDY2MjUgQzEzMi4yNDAxNjUsMTA1LjYwNjYyNSAxMjkuMzI1MDUzLDExNC4wODY5NTcgMTI5LjMyNTA1MywxMjAuNDQ3MjA1IEMxMjkuMzI1MDUzLDEyOC4xMzI1MDYgMTMyLjc3MDE4NywxMzAuNTE3NiAxNjUuNjMxNDcxLDEzNC43NTc3NjYgQzE5OC4yMjc3NDQsMTM4Ljk5NzkzMSAyMTMuNTk4MzQ0LDE0NS4wOTMxNjkgMjEzLjU5ODM0NCwxNjcuODg0MDU4IEMyMTMuMzMzMzMzLDE5MS4yMDQ5NyAxOTQuMjUyNTg5LDIwNC40NTU0ODggMTYwLjU5NjI3NCwyMDQuNDU1NDg4IEwxNjAuNTk2Mjc0LDIwNC40NTU0ODggWiIvPiYjeGE7ICAgIDwvZz4mI3hhOzwvc3ZnPg==;" parent="1" vertex="1">
          <mxGeometry x="518" y="405" width="33.66" height="38" as="geometry" />
        </mxCell>
        <mxCell id="dYVZeftza5Ptzcx6qMnq-78" style="edgeStyle=orthogonalEdgeStyle;rounded=0;orthogonalLoop=1;jettySize=auto;html=1;exitX=1;exitY=0.5;exitDx=0;exitDy=0;entryX=0;entryY=0.5;entryDx=0;entryDy=0;" parent="1" source="dYVZeftza5Ptzcx6qMnq-27" target="dYVZeftza5Ptzcx6qMnq-77" edge="1">
          <mxGeometry relative="1" as="geometry" />
        </mxCell>
        <mxCell id="dYVZeftza5Ptzcx6qMnq-27" value="NodeJS" style="rounded=1;whiteSpace=wrap;html=1;arcSize=10;verticalAlign=bottom;" parent="1" vertex="1">
          <mxGeometry x="840" y="400" width="70" height="60" as="geometry" />
        </mxCell>
        <mxCell id="dYVZeftza5Ptzcx6qMnq-28" value="" style="shape=image;verticalLabelPosition=bottom;labelBackgroundColor=default;verticalAlign=top;aspect=fixed;imageAspect=0;image=data:image/svg+xml,PHN2ZyBwcmVzZXJ2ZUFzcGVjdFJhdGlvPSJ4TWlkWU1pZCIgeG1sbnM6eGxpbms9Imh0dHA6Ly93d3cudzMub3JnLzE5OTkveGxpbmsiIHhtbG5zPSJodHRwOi8vd3d3LnczLm9yZy8yMDAwL3N2ZyIgdmVyc2lvbj0iMS4xIiB2aWV3Qm94PSIwIDAgMjU2IDI4OSIgaGVpZ2h0PSIyODlweCIgd2lkdGg9IjI1NnB4Ij4mI3hhOyAgICA8Zz4mI3hhOyAgICAgICAgPHBhdGggZmlsbD0iIzUzOUU0MyIgZD0iTTEyNy45OTk5OTksMjg4LjQ2Mzc3MSBDMTI0LjAyNDg0NCwyODguNDYzNzcxIDEyMC4zMTQ2OTksMjg3LjQwMzcyOCAxMTYuODY5NTY0LDI4NS41NDg2NTYgTDgxLjYyMzE4ODQsMjY0LjYxMjgzOCBDNzYuMzIyOTgsMjYxLjY5NzcyNCA3OC45NzMwODU0LDI2MC42Mzc2ODIgODAuNTYzMTQ1OCwyNjAuMTA3NjYxIEM4Ny43MTg0MjU5LDI1Ny43MjI1NyA4OS4wNDM0Nzc1LDI1Ny4xOTI1NDcgOTYuNDYzNzY4OCwyNTIuOTUyMzgxIEM5Ny4yNTg3OTc5LDI1Mi40MjIzNjEgOTguMzE4ODQwNSwyNTIuNjg3MzcyIDk5LjExMzg3MTgsMjUzLjIxNzM5MiBMMTI2LjE0NDkyNywyNjkuMzgzMDI0IEMxMjcuMjA0OTcsMjY5LjkxMzA0NSAxMjguNTMwMDIxLDI2OS45MTMwNDUgMTI5LjMyNTA1MywyNjkuMzgzMDI0IEwyMzUuMDY0MTgyLDIwOC4xNjU2MzQgQzIzNi4xMjQyMjUsMjA3LjYzNTYxMSAyMzYuNjU0MjQ1LDIwNi41NzU1NzEgMjM2LjY1NDI0NSwyMDUuMjUwNTE5IEwyMzYuNjU0MjQ1LDgzLjA4MDc0NjcgQzIzNi42NTQyNDUsODEuNzU1NjkyOSAyMzYuMTI0MjI1LDgwLjY5NTY1MjYgMjM1LjA2NDE4Miw4MC4xNjU2MzI0IEwxMjkuMzI1MDUzLDE5LjIxMzI1MDYgQzEyOC4yNjUwMSwxOC42ODMyMzA1IDEyNi45Mzk5NTksMTguNjgzMjMwNSAxMjYuMTQ0OTI3LDE5LjIxMzI1MDYgTDIwLjQwNTc5NTQsODAuMTY1NjMyNCBDMTkuMzQ1NzU1MSw4MC42OTU2NTI2IDE4LjgxNTczNDksODIuMDIwNzA0MSAxOC44MTU3MzQ5LDgzLjA4MDc0NjcgTDE4LjgxNTczNDksMjA1LjI1MDUxOSBDMTguODE1NzM0OSwyMDYuMzEwNTYgMTkuMzQ1NzU1MSwyMDcuNjM1NjExIDIwLjQwNTc5NTQsMjA4LjE2NTYzNCBMNDkuMjkxOTI0NywyMjQuODYxMjg2IEM2NC45Mjc1MzY0LDIzMi44MTE1OTUgNzQuNzMyOTE5NiwyMjMuNTM2MjM0IDc0LjczMjkxOTYsMjE0LjI2MDg3MSBMNzQuNzMyOTE5Niw5My42ODExNTkgQzc0LjczMjkxOTYsOTIuMDkxMDk4NSA3Ni4wNTc5NzExLDkwLjUwMTAzNTggNzcuOTEzMDQyOCw5MC41MDEwMzU4IEw5MS40Mjg1NzE2LDkwLjUwMTAzNTggQzkzLjAxODYzNDMsOTAuNTAxMDM1OCA5NC42MDg2OTQ4LDkxLjgyNjA4NzMgOTQuNjA4Njk0OCw5My42ODExNTkgTDk0LjYwODY5NDgsMjE0LjI2MDg3MSBDOTQuNjA4Njk0OCwyMzUuMTk2Njg5IDgzLjIxMzI1MTIsMjQ3LjM4NzE2NCA2My4zMzc0NzM3LDI0Ny4zODcxNjQgQzU3LjI0MjIzNjIsMjQ3LjM4NzE2NCA1Mi40NzIwNTAyLDI0Ny4zODcxNjQgMzguOTU2NTIxNCwyNDAuNzYxOTA2IEwxMS4xMzA0MzQ3LDIyNC44NjEyODYgQzQuMjQwMTY1ODEsMjIwLjg4NjEyOSA1LjY4NDM0MTg5ZS0xNCwyMTMuNDY1ODQgNS42ODQzNDE4OWUtMTQsMjA1LjUxNTUyOCBMNS42ODQzNDE4OWUtMTQsODMuMzQ1NzU1NyBDNS42ODQzNDE4OWUtMTQsNzUuMzk1NDQ2NSA0LjI0MDE2NTgxLDY3Ljk3NTE1NTIgMTEuMTMwNDM0Nyw2NC4wMDAwMDA2IEwxMTYuODY5NTY0LDIuNzgyNjA3NTIgQzEyMy40OTQ4MjQsLTAuOTI3NTM1ODQxIDEzMi41MDUxNzYsLTAuOTI3NTM1ODQxIDEzOS4xMzA0MzYsMi43ODI2MDc1MiBMMjQ0Ljg2OTU2NSw2NC4wMDAwMDA2IEMyNTEuNzU5ODM0LDY3Ljk3NTE1NTIgMjU2LDc1LjM5NTQ0NjUgMjU2LDgzLjM0NTc1NTcgTDI1NiwyMDUuNTE1NTI4IEMyNTYsMjEzLjQ2NTg0IDI1MS43NTk4MzQsMjIwLjg4NjEyOSAyNDQuODY5NTY1LDIyNC44NjEyODYgTDEzOS4xMzA0MzYsMjg2LjA3ODY3NiBDMTM1LjY4NTI5OSwyODcuNjY4NzM5IDEzMS43MTAxNDUsMjg4LjQ2Mzc3MSAxMjcuOTk5OTk5LDI4OC40NjM3NzEgTDEyNy45OTk5OTksMjg4LjQ2Mzc3MSBaIE0xNjAuNTk2Mjc0LDIwNC40NTU0ODggQzExNC4yMTk0NjEsMjA0LjQ1NTQ4OCAxMDQuNjc5MDg5LDE4My4yNTQ2NTkgMTA0LjY3OTA4OSwxNjUuMjMzOTU1IEMxMDQuNjc5MDg5LDE2My42NDM4OTMgMTA2LjAwNDE0MSwxNjIuMDUzODMyIDEwNy44NTkyMTIsMTYyLjA1MzgzMiBMMTIxLjYzOTc1MiwxNjIuMDUzODMyIEMxMjMuMjI5ODEzLDE2Mi4wNTM4MzIgMTI0LjU1NDg2NCwxNjMuMTEzODcyIDEyNC41NTQ4NjQsMTY0LjcwMzkzNSBDMTI2LjY3NDk0NywxNzguNzQ5NDg0IDEzMi43NzAxODcsMTg1LjYzOTc1MyAxNjAuODYxMjgzLDE4NS42Mzk3NTMgQzE4My4xMjIxNTQsMTg1LjYzOTc1MyAxOTIuNjYyNTI2LDE4MC42MDQ1NTYgMTkyLjY2MjUyNiwxNjguNjc5MDkgQzE5Mi42NjI1MjYsMTYxLjc4ODgyMSAxOTAuMDEyNDIzLDE1Ni43NTM2MjQgMTU1LjI5NjA2NSwxNTMuMzA4NDg5IEMxMjYuNDA5OTM4LDE1MC4zOTMzNzUgMTA4LjM4OTIzNSwxNDQuMDMzMTI2IDEwOC4zODkyMzUsMTIwLjk3NzIyNiBDMTA4LjM4OTIzNSw5OS41MTEzODc1IDEyNi40MDk5MzgsODYuNzkwODkwMSAxNTYuNjIxMTE5LDg2Ljc5MDg5MDEgQzE5MC41NDI0NDMsODYuNzkwODkwMSAyMDcuMjM4MDk1LDk4LjQ1MTM0NzIgMjA5LjM1ODE3OCwxMjMuODkyMzQgQzIwOS4zNTgxNzgsMTI0LjY4NzM3MSAyMDkuMDkzMTY3LDEyNS40ODI0MDMgMjA4LjU2MzE0NywxMjYuMjc3NDM0IEMyMDguMDMzMTI3LDEyNi44MDc0NTQgMjA3LjIzODA5NSwxMjcuMzM3NDc0IDIwNi40NDMwNjQsMTI3LjMzNzQ3NCBMMTkyLjY2MjUyNiwxMjcuMzM3NDc0IEMxOTEuMzM3NDc1LDEyNy4zMzc0NzQgMTkwLjAxMjQyMywxMjYuMjc3NDM0IDE4OS43NDc0MTIsMTI0Ljk1MjM4MiBDMTg2LjU2NzI4OSwxMTAuMzc2ODEzIDE3OC4zNTE5NjYsMTA1LjYwNjYyNSAxNTYuNjIxMTE5LDEwNS42MDY2MjUgQzEzMi4yNDAxNjUsMTA1LjYwNjYyNSAxMjkuMzI1MDUzLDExNC4wODY5NTcgMTI5LjMyNTA1MywxMjAuNDQ3MjA1IEMxMjkuMzI1MDUzLDEyOC4xMzI1MDYgMTMyLjc3MDE4NywxMzAuNTE3NiAxNjUuNjMxNDcxLDEzNC43NTc3NjYgQzE5OC4yMjc3NDQsMTM4Ljk5NzkzMSAyMTMuNTk4MzQ0LDE0NS4wOTMxNjkgMjEzLjU5ODM0NCwxNjcuODg0MDU4IEMyMTMuMzMzMzMzLDE5MS4yMDQ5NyAxOTQuMjUyNTg5LDIwNC40NTU0ODggMTYwLjU5NjI3NCwyMDQuNDU1NDg4IEwxNjAuNTk2Mjc0LDIwNC40NTU0ODggWiIvPiYjeGE7ICAgIDwvZz4mI3hhOzwvc3ZnPg==;" parent="1" vertex="1">
          <mxGeometry x="858" y="405" width="32" height="36.13" as="geometry" />
        </mxCell>
        <mxCell id="dYVZeftza5Ptzcx6qMnq-49" style="edgeStyle=orthogonalEdgeStyle;rounded=0;orthogonalLoop=1;jettySize=auto;html=1;exitX=0;exitY=0.5;exitDx=0;exitDy=0;entryX=1;entryY=0.5;entryDx=0;entryDy=0;" parent="1" source="dYVZeftza5Ptzcx6qMnq-29" target="dYVZeftza5Ptzcx6qMnq-46" edge="1">
          <mxGeometry relative="1" as="geometry" />
        </mxCell>
        <mxCell id="dYVZeftza5Ptzcx6qMnq-51" style="edgeStyle=orthogonalEdgeStyle;rounded=0;orthogonalLoop=1;jettySize=auto;html=1;exitX=0.5;exitY=0;exitDx=0;exitDy=0;entryX=0.5;entryY=1;entryDx=0;entryDy=0;" parent="1" source="dYVZeftza5Ptzcx6qMnq-29" target="dYVZeftza5Ptzcx6qMnq-27" edge="1">
          <mxGeometry relative="1" as="geometry" />
        </mxCell>
        <mxCell id="dTVzYgWPUEsBKpjI8WKp-8" style="edgeStyle=orthogonalEdgeStyle;rounded=0;orthogonalLoop=1;jettySize=auto;html=1;exitX=1;exitY=0.5;exitDx=0;exitDy=0;entryX=0.5;entryY=1;entryDx=0;entryDy=0;" parent="1" source="dYVZeftza5Ptzcx6qMnq-29" target="dTVzYgWPUEsBKpjI8WKp-1" edge="1">
          <mxGeometry relative="1" as="geometry" />
        </mxCell>
        <mxCell id="dYVZeftza5Ptzcx6qMnq-29" value="NodeJS" style="rounded=1;whiteSpace=wrap;html=1;arcSize=10;verticalAlign=bottom;" parent="1" vertex="1">
          <mxGeometry x="840" y="540" width="70" height="60" as="geometry" />
        </mxCell>
        <mxCell id="dYVZeftza5Ptzcx6qMnq-30" value="" style="shape=image;verticalLabelPosition=bottom;labelBackgroundColor=default;verticalAlign=top;aspect=fixed;imageAspect=0;image=data:image/svg+xml,PHN2ZyBwcmVzZXJ2ZUFzcGVjdFJhdGlvPSJ4TWlkWU1pZCIgeG1sbnM6eGxpbms9Imh0dHA6Ly93d3cudzMub3JnLzE5OTkveGxpbmsiIHhtbG5zPSJodHRwOi8vd3d3LnczLm9yZy8yMDAwL3N2ZyIgdmVyc2lvbj0iMS4xIiB2aWV3Qm94PSIwIDAgMjU2IDI4OSIgaGVpZ2h0PSIyODlweCIgd2lkdGg9IjI1NnB4Ij4mI3hhOyAgICA8Zz4mI3hhOyAgICAgICAgPHBhdGggZmlsbD0iIzUzOUU0MyIgZD0iTTEyNy45OTk5OTksMjg4LjQ2Mzc3MSBDMTI0LjAyNDg0NCwyODguNDYzNzcxIDEyMC4zMTQ2OTksMjg3LjQwMzcyOCAxMTYuODY5NTY0LDI4NS41NDg2NTYgTDgxLjYyMzE4ODQsMjY0LjYxMjgzOCBDNzYuMzIyOTgsMjYxLjY5NzcyNCA3OC45NzMwODU0LDI2MC42Mzc2ODIgODAuNTYzMTQ1OCwyNjAuMTA3NjYxIEM4Ny43MTg0MjU5LDI1Ny43MjI1NyA4OS4wNDM0Nzc1LDI1Ny4xOTI1NDcgOTYuNDYzNzY4OCwyNTIuOTUyMzgxIEM5Ny4yNTg3OTc5LDI1Mi40MjIzNjEgOTguMzE4ODQwNSwyNTIuNjg3MzcyIDk5LjExMzg3MTgsMjUzLjIxNzM5MiBMMTI2LjE0NDkyNywyNjkuMzgzMDI0IEMxMjcuMjA0OTcsMjY5LjkxMzA0NSAxMjguNTMwMDIxLDI2OS45MTMwNDUgMTI5LjMyNTA1MywyNjkuMzgzMDI0IEwyMzUuMDY0MTgyLDIwOC4xNjU2MzQgQzIzNi4xMjQyMjUsMjA3LjYzNTYxMSAyMzYuNjU0MjQ1LDIwNi41NzU1NzEgMjM2LjY1NDI0NSwyMDUuMjUwNTE5IEwyMzYuNjU0MjQ1LDgzLjA4MDc0NjcgQzIzNi42NTQyNDUsODEuNzU1NjkyOSAyMzYuMTI0MjI1LDgwLjY5NTY1MjYgMjM1LjA2NDE4Miw4MC4xNjU2MzI0IEwxMjkuMzI1MDUzLDE5LjIxMzI1MDYgQzEyOC4yNjUwMSwxOC42ODMyMzA1IDEyNi45Mzk5NTksMTguNjgzMjMwNSAxMjYuMTQ0OTI3LDE5LjIxMzI1MDYgTDIwLjQwNTc5NTQsODAuMTY1NjMyNCBDMTkuMzQ1NzU1MSw4MC42OTU2NTI2IDE4LjgxNTczNDksODIuMDIwNzA0MSAxOC44MTU3MzQ5LDgzLjA4MDc0NjcgTDE4LjgxNTczNDksMjA1LjI1MDUxOSBDMTguODE1NzM0OSwyMDYuMzEwNTYgMTkuMzQ1NzU1MSwyMDcuNjM1NjExIDIwLjQwNTc5NTQsMjA4LjE2NTYzNCBMNDkuMjkxOTI0NywyMjQuODYxMjg2IEM2NC45Mjc1MzY0LDIzMi44MTE1OTUgNzQuNzMyOTE5NiwyMjMuNTM2MjM0IDc0LjczMjkxOTYsMjE0LjI2MDg3MSBMNzQuNzMyOTE5Niw5My42ODExNTkgQzc0LjczMjkxOTYsOTIuMDkxMDk4NSA3Ni4wNTc5NzExLDkwLjUwMTAzNTggNzcuOTEzMDQyOCw5MC41MDEwMzU4IEw5MS40Mjg1NzE2LDkwLjUwMTAzNTggQzkzLjAxODYzNDMsOTAuNTAxMDM1OCA5NC42MDg2OTQ4LDkxLjgyNjA4NzMgOTQuNjA4Njk0OCw5My42ODExNTkgTDk0LjYwODY5NDgsMjE0LjI2MDg3MSBDOTQuNjA4Njk0OCwyMzUuMTk2Njg5IDgzLjIxMzI1MTIsMjQ3LjM4NzE2NCA2My4zMzc0NzM3LDI0Ny4zODcxNjQgQzU3LjI0MjIzNjIsMjQ3LjM4NzE2NCA1Mi40NzIwNTAyLDI0Ny4zODcxNjQgMzguOTU2NTIxNCwyNDAuNzYxOTA2IEwxMS4xMzA0MzQ3LDIyNC44NjEyODYgQzQuMjQwMTY1ODEsMjIwLjg4NjEyOSA1LjY4NDM0MTg5ZS0xNCwyMTMuNDY1ODQgNS42ODQzNDE4OWUtMTQsMjA1LjUxNTUyOCBMNS42ODQzNDE4OWUtMTQsODMuMzQ1NzU1NyBDNS42ODQzNDE4OWUtMTQsNzUuMzk1NDQ2NSA0LjI0MDE2NTgxLDY3Ljk3NTE1NTIgMTEuMTMwNDM0Nyw2NC4wMDAwMDA2IEwxMTYuODY5NTY0LDIuNzgyNjA3NTIgQzEyMy40OTQ4MjQsLTAuOTI3NTM1ODQxIDEzMi41MDUxNzYsLTAuOTI3NTM1ODQxIDEzOS4xMzA0MzYsMi43ODI2MDc1MiBMMjQ0Ljg2OTU2NSw2NC4wMDAwMDA2IEMyNTEuNzU5ODM0LDY3Ljk3NTE1NTIgMjU2LDc1LjM5NTQ0NjUgMjU2LDgzLjM0NTc1NTcgTDI1NiwyMDUuNTE1NTI4IEMyNTYsMjEzLjQ2NTg0IDI1MS43NTk4MzQsMjIwLjg4NjEyOSAyNDQuODY5NTY1LDIyNC44NjEyODYgTDEzOS4xMzA0MzYsMjg2LjA3ODY3NiBDMTM1LjY4NTI5OSwyODcuNjY4NzM5IDEzMS43MTAxNDUsMjg4LjQ2Mzc3MSAxMjcuOTk5OTk5LDI4OC40NjM3NzEgTDEyNy45OTk5OTksMjg4LjQ2Mzc3MSBaIE0xNjAuNTk2Mjc0LDIwNC40NTU0ODggQzExNC4yMTk0NjEsMjA0LjQ1NTQ4OCAxMDQuNjc5MDg5LDE4My4yNTQ2NTkgMTA0LjY3OTA4OSwxNjUuMjMzOTU1IEMxMDQuNjc5MDg5LDE2My42NDM4OTMgMTA2LjAwNDE0MSwxNjIuMDUzODMyIDEwNy44NTkyMTIsMTYyLjA1MzgzMiBMMTIxLjYzOTc1MiwxNjIuMDUzODMyIEMxMjMuMjI5ODEzLDE2Mi4wNTM4MzIgMTI0LjU1NDg2NCwxNjMuMTEzODcyIDEyNC41NTQ4NjQsMTY0LjcwMzkzNSBDMTI2LjY3NDk0NywxNzguNzQ5NDg0IDEzMi43NzAxODcsMTg1LjYzOTc1MyAxNjAuODYxMjgzLDE4NS42Mzk3NTMgQzE4My4xMjIxNTQsMTg1LjYzOTc1MyAxOTIuNjYyNTI2LDE4MC42MDQ1NTYgMTkyLjY2MjUyNiwxNjguNjc5MDkgQzE5Mi42NjI1MjYsMTYxLjc4ODgyMSAxOTAuMDEyNDIzLDE1Ni43NTM2MjQgMTU1LjI5NjA2NSwxNTMuMzA4NDg5IEMxMjYuNDA5OTM4LDE1MC4zOTMzNzUgMTA4LjM4OTIzNSwxNDQuMDMzMTI2IDEwOC4zODkyMzUsMTIwLjk3NzIyNiBDMTA4LjM4OTIzNSw5OS41MTEzODc1IDEyNi40MDk5MzgsODYuNzkwODkwMSAxNTYuNjIxMTE5LDg2Ljc5MDg5MDEgQzE5MC41NDI0NDMsODYuNzkwODkwMSAyMDcuMjM4MDk1LDk4LjQ1MTM0NzIgMjA5LjM1ODE3OCwxMjMuODkyMzQgQzIwOS4zNTgxNzgsMTI0LjY4NzM3MSAyMDkuMDkzMTY3LDEyNS40ODI0MDMgMjA4LjU2MzE0NywxMjYuMjc3NDM0IEMyMDguMDMzMTI3LDEyNi44MDc0NTQgMjA3LjIzODA5NSwxMjcuMzM3NDc0IDIwNi40NDMwNjQsMTI3LjMzNzQ3NCBMMTkyLjY2MjUyNiwxMjcuMzM3NDc0IEMxOTEuMzM3NDc1LDEyNy4zMzc0NzQgMTkwLjAxMjQyMywxMjYuMjc3NDM0IDE4OS43NDc0MTIsMTI0Ljk1MjM4MiBDMTg2LjU2NzI4OSwxMTAuMzc2ODEzIDE3OC4zNTE5NjYsMTA1LjYwNjYyNSAxNTYuNjIxMTE5LDEwNS42MDY2MjUgQzEzMi4yNDAxNjUsMTA1LjYwNjYyNSAxMjkuMzI1MDUzLDExNC4wODY5NTcgMTI5LjMyNTA1MywxMjAuNDQ3MjA1IEMxMjkuMzI1MDUzLDEyOC4xMzI1MDYgMTMyLjc3MDE4NywxMzAuNTE3NiAxNjUuNjMxNDcxLDEzNC43NTc3NjYgQzE5OC4yMjc3NDQsMTM4Ljk5NzkzMSAyMTMuNTk4MzQ0LDE0NS4wOTMxNjkgMjEzLjU5ODM0NCwxNjcuODg0MDU4IEMyMTMuMzMzMzMzLDE5MS4yMDQ5NyAxOTQuMjUyNTg5LDIwNC40NTU0ODggMTYwLjU5NjI3NCwyMDQuNDU1NDg4IEwxNjAuNTk2Mjc0LDIwNC40NTU0ODggWiIvPiYjeGE7ICAgIDwvZz4mI3hhOzwvc3ZnPg==;" parent="1" vertex="1">
          <mxGeometry x="858" y="545" width="33.66" height="38" as="geometry" />
        </mxCell>
        <mxCell id="dYVZeftza5Ptzcx6qMnq-48" style="edgeStyle=orthogonalEdgeStyle;rounded=0;orthogonalLoop=1;jettySize=auto;html=1;exitX=1;exitY=0.5;exitDx=0;exitDy=0;entryX=0;entryY=0.5;entryDx=0;entryDy=0;" parent="1" source="dYVZeftza5Ptzcx6qMnq-31" target="dYVZeftza5Ptzcx6qMnq-46" edge="1">
          <mxGeometry relative="1" as="geometry" />
        </mxCell>
        <mxCell id="dYVZeftza5Ptzcx6qMnq-31" value="NodeJS" style="rounded=1;whiteSpace=wrap;html=1;arcSize=10;verticalAlign=bottom;" parent="1" vertex="1">
          <mxGeometry x="499.83" y="540" width="70" height="60" as="geometry" />
        </mxCell>
        <mxCell id="dYVZeftza5Ptzcx6qMnq-32" value="" style="shape=image;verticalLabelPosition=bottom;labelBackgroundColor=default;verticalAlign=top;aspect=fixed;imageAspect=0;image=data:image/svg+xml,PHN2ZyBwcmVzZXJ2ZUFzcGVjdFJhdGlvPSJ4TWlkWU1pZCIgeG1sbnM6eGxpbms9Imh0dHA6Ly93d3cudzMub3JnLzE5OTkveGxpbmsiIHhtbG5zPSJodHRwOi8vd3d3LnczLm9yZy8yMDAwL3N2ZyIgdmVyc2lvbj0iMS4xIiB2aWV3Qm94PSIwIDAgMjU2IDI4OSIgaGVpZ2h0PSIyODlweCIgd2lkdGg9IjI1NnB4Ij4mI3hhOyAgICA8Zz4mI3hhOyAgICAgICAgPHBhdGggZmlsbD0iIzUzOUU0MyIgZD0iTTEyNy45OTk5OTksMjg4LjQ2Mzc3MSBDMTI0LjAyNDg0NCwyODguNDYzNzcxIDEyMC4zMTQ2OTksMjg3LjQwMzcyOCAxMTYuODY5NTY0LDI4NS41NDg2NTYgTDgxLjYyMzE4ODQsMjY0LjYxMjgzOCBDNzYuMzIyOTgsMjYxLjY5NzcyNCA3OC45NzMwODU0LDI2MC42Mzc2ODIgODAuNTYzMTQ1OCwyNjAuMTA3NjYxIEM4Ny43MTg0MjU5LDI1Ny43MjI1NyA4OS4wNDM0Nzc1LDI1Ny4xOTI1NDcgOTYuNDYzNzY4OCwyNTIuOTUyMzgxIEM5Ny4yNTg3OTc5LDI1Mi40MjIzNjEgOTguMzE4ODQwNSwyNTIuNjg3MzcyIDk5LjExMzg3MTgsMjUzLjIxNzM5MiBMMTI2LjE0NDkyNywyNjkuMzgzMDI0IEMxMjcuMjA0OTcsMjY5LjkxMzA0NSAxMjguNTMwMDIxLDI2OS45MTMwNDUgMTI5LjMyNTA1MywyNjkuMzgzMDI0IEwyMzUuMDY0MTgyLDIwOC4xNjU2MzQgQzIzNi4xMjQyMjUsMjA3LjYzNTYxMSAyMzYuNjU0MjQ1LDIwNi41NzU1NzEgMjM2LjY1NDI0NSwyMDUuMjUwNTE5IEwyMzYuNjU0MjQ1LDgzLjA4MDc0NjcgQzIzNi42NTQyNDUsODEuNzU1NjkyOSAyMzYuMTI0MjI1LDgwLjY5NTY1MjYgMjM1LjA2NDE4Miw4MC4xNjU2MzI0IEwxMjkuMzI1MDUzLDE5LjIxMzI1MDYgQzEyOC4yNjUwMSwxOC42ODMyMzA1IDEyNi45Mzk5NTksMTguNjgzMjMwNSAxMjYuMTQ0OTI3LDE5LjIxMzI1MDYgTDIwLjQwNTc5NTQsODAuMTY1NjMyNCBDMTkuMzQ1NzU1MSw4MC42OTU2NTI2IDE4LjgxNTczNDksODIuMDIwNzA0MSAxOC44MTU3MzQ5LDgzLjA4MDc0NjcgTDE4LjgxNTczNDksMjA1LjI1MDUxOSBDMTguODE1NzM0OSwyMDYuMzEwNTYgMTkuMzQ1NzU1MSwyMDcuNjM1NjExIDIwLjQwNTc5NTQsMjA4LjE2NTYzNCBMNDkuMjkxOTI0NywyMjQuODYxMjg2IEM2NC45Mjc1MzY0LDIzMi44MTE1OTUgNzQuNzMyOTE5NiwyMjMuNTM2MjM0IDc0LjczMjkxOTYsMjE0LjI2MDg3MSBMNzQuNzMyOTE5Niw5My42ODExNTkgQzc0LjczMjkxOTYsOTIuMDkxMDk4NSA3Ni4wNTc5NzExLDkwLjUwMTAzNTggNzcuOTEzMDQyOCw5MC41MDEwMzU4IEw5MS40Mjg1NzE2LDkwLjUwMTAzNTggQzkzLjAxODYzNDMsOTAuNTAxMDM1OCA5NC42MDg2OTQ4LDkxLjgyNjA4NzMgOTQuNjA4Njk0OCw5My42ODExNTkgTDk0LjYwODY5NDgsMjE0LjI2MDg3MSBDOTQuNjA4Njk0OCwyMzUuMTk2Njg5IDgzLjIxMzI1MTIsMjQ3LjM4NzE2NCA2My4zMzc0NzM3LDI0Ny4zODcxNjQgQzU3LjI0MjIzNjIsMjQ3LjM4NzE2NCA1Mi40NzIwNTAyLDI0Ny4zODcxNjQgMzguOTU2NTIxNCwyNDAuNzYxOTA2IEwxMS4xMzA0MzQ3LDIyNC44NjEyODYgQzQuMjQwMTY1ODEsMjIwLjg4NjEyOSA1LjY4NDM0MTg5ZS0xNCwyMTMuNDY1ODQgNS42ODQzNDE4OWUtMTQsMjA1LjUxNTUyOCBMNS42ODQzNDE4OWUtMTQsODMuMzQ1NzU1NyBDNS42ODQzNDE4OWUtMTQsNzUuMzk1NDQ2NSA0LjI0MDE2NTgxLDY3Ljk3NTE1NTIgMTEuMTMwNDM0Nyw2NC4wMDAwMDA2IEwxMTYuODY5NTY0LDIuNzgyNjA3NTIgQzEyMy40OTQ4MjQsLTAuOTI3NTM1ODQxIDEzMi41MDUxNzYsLTAuOTI3NTM1ODQxIDEzOS4xMzA0MzYsMi43ODI2MDc1MiBMMjQ0Ljg2OTU2NSw2NC4wMDAwMDA2IEMyNTEuNzU5ODM0LDY3Ljk3NTE1NTIgMjU2LDc1LjM5NTQ0NjUgMjU2LDgzLjM0NTc1NTcgTDI1NiwyMDUuNTE1NTI4IEMyNTYsMjEzLjQ2NTg0IDI1MS43NTk4MzQsMjIwLjg4NjEyOSAyNDQuODY5NTY1LDIyNC44NjEyODYgTDEzOS4xMzA0MzYsMjg2LjA3ODY3NiBDMTM1LjY4NTI5OSwyODcuNjY4NzM5IDEzMS43MTAxNDUsMjg4LjQ2Mzc3MSAxMjcuOTk5OTk5LDI4OC40NjM3NzEgTDEyNy45OTk5OTksMjg4LjQ2Mzc3MSBaIE0xNjAuNTk2Mjc0LDIwNC40NTU0ODggQzExNC4yMTk0NjEsMjA0LjQ1NTQ4OCAxMDQuNjc5MDg5LDE4My4yNTQ2NTkgMTA0LjY3OTA4OSwxNjUuMjMzOTU1IEMxMDQuNjc5MDg5LDE2My42NDM4OTMgMTA2LjAwNDE0MSwxNjIuMDUzODMyIDEwNy44NTkyMTIsMTYyLjA1MzgzMiBMMTIxLjYzOTc1MiwxNjIuMDUzODMyIEMxMjMuMjI5ODEzLDE2Mi4wNTM4MzIgMTI0LjU1NDg2NCwxNjMuMTEzODcyIDEyNC41NTQ4NjQsMTY0LjcwMzkzNSBDMTI2LjY3NDk0NywxNzguNzQ5NDg0IDEzMi43NzAxODcsMTg1LjYzOTc1MyAxNjAuODYxMjgzLDE4NS42Mzk3NTMgQzE4My4xMjIxNTQsMTg1LjYzOTc1MyAxOTIuNjYyNTI2LDE4MC42MDQ1NTYgMTkyLjY2MjUyNiwxNjguNjc5MDkgQzE5Mi42NjI1MjYsMTYxLjc4ODgyMSAxOTAuMDEyNDIzLDE1Ni43NTM2MjQgMTU1LjI5NjA2NSwxNTMuMzA4NDg5IEMxMjYuNDA5OTM4LDE1MC4zOTMzNzUgMTA4LjM4OTIzNSwxNDQuMDMzMTI2IDEwOC4zODkyMzUsMTIwLjk3NzIyNiBDMTA4LjM4OTIzNSw5OS41MTEzODc1IDEyNi40MDk5MzgsODYuNzkwODkwMSAxNTYuNjIxMTE5LDg2Ljc5MDg5MDEgQzE5MC41NDI0NDMsODYuNzkwODkwMSAyMDcuMjM4MDk1LDk4LjQ1MTM0NzIgMjA5LjM1ODE3OCwxMjMuODkyMzQgQzIwOS4zNTgxNzgsMTI0LjY4NzM3MSAyMDkuMDkzMTY3LDEyNS40ODI0MDMgMjA4LjU2MzE0NywxMjYuMjc3NDM0IEMyMDguMDMzMTI3LDEyNi44MDc0NTQgMjA3LjIzODA5NSwxMjcuMzM3NDc0IDIwNi40NDMwNjQsMTI3LjMzNzQ3NCBMMTkyLjY2MjUyNiwxMjcuMzM3NDc0IEMxOTEuMzM3NDc1LDEyNy4zMzc0NzQgMTkwLjAxMjQyMywxMjYuMjc3NDM0IDE4OS43NDc0MTIsMTI0Ljk1MjM4MiBDMTg2LjU2NzI4OSwxMTAuMzc2ODEzIDE3OC4zNTE5NjYsMTA1LjYwNjYyNSAxNTYuNjIxMTE5LDEwNS42MDY2MjUgQzEzMi4yNDAxNjUsMTA1LjYwNjYyNSAxMjkuMzI1MDUzLDExNC4wODY5NTcgMTI5LjMyNTA1MywxMjAuNDQ3MjA1IEMxMjkuMzI1MDUzLDEyOC4xMzI1MDYgMTMyLjc3MDE4NywxMzAuNTE3NiAxNjUuNjMxNDcxLDEzNC43NTc3NjYgQzE5OC4yMjc3NDQsMTM4Ljk5NzkzMSAyMTMuNTk4MzQ0LDE0NS4wOTMxNjkgMjEzLjU5ODM0NCwxNjcuODg0MDU4IEMyMTMuMzMzMzMzLDE5MS4yMDQ5NyAxOTQuMjUyNTg5LDIwNC40NTU0ODggMTYwLjU5NjI3NCwyMDQuNDU1NDg4IEwxNjAuNTk2Mjc0LDIwNC40NTU0ODggWiIvPiYjeGE7ICAgIDwvZz4mI3hhOzwvc3ZnPg==;" parent="1" vertex="1">
          <mxGeometry x="517.83" y="545" width="33.66" height="38" as="geometry" />
        </mxCell>
        <mxCell id="dYVZeftza5Ptzcx6qMnq-35" value="" style="shape=cylinder3;whiteSpace=wrap;html=1;boundedLbl=1;backgroundOutline=1;size=15;" parent="1" vertex="1">
          <mxGeometry x="844" y="170" width="62" height="80" as="geometry" />
        </mxCell>
        <mxCell id="dYVZeftza5Ptzcx6qMnq-36" value="" style="shape=image;verticalLabelPosition=bottom;labelBackgroundColor=default;verticalAlign=top;aspect=fixed;imageAspect=0;image=data:image/svg+xml,PHN2ZyB4bWxucz0iaHR0cDovL3d3dy53My5vcmcvMjAwMC9zdmciIHhtbDpzcGFjZT0icHJlc2VydmUiIHZpZXdCb3g9IjAgMCA0MzIuMDcxIDQ0NS4zODMiIGhlaWdodD0iNDQ1LjM4M3B0IiB3aWR0aD0iNDMyLjA3MXB0Ij4mI3hhOzxnIHN0eWxlPSJmaWxsLXJ1bGU6bm9uemVybztjbGlwLXJ1bGU6bm9uemVybztzdHJva2U6IzAwMDAwMDtzdHJva2UtbWl0ZXJsaW1pdDo0OyIgaWQ9Im9yZ2luYWwiPiYjeGE7CTwvZz4mI3hhOzxnIHN0eWxlPSJmaWxsLXJ1bGU6bm9uemVybztjbGlwLXJ1bGU6bm9uemVybztmaWxsOm5vbmU7c3Ryb2tlOiNGRkZGRkY7c3Ryb2tlLXdpZHRoOjEyLjQ2NTE7c3Ryb2tlLWxpbmVjYXA6cm91bmQ7c3Ryb2tlLWxpbmVqb2luOnJvdW5kO3N0cm9rZS1taXRlcmxpbWl0OjQ7IiBpZD0iTGF5ZXJfeDAwMjBfMyI+JiN4YTs8cGF0aCBkPSJNMzIzLjIwNSwzMjQuMjI3YzIuODMzLTIzLjYwMSwxLjk4NC0yNy4wNjIsMTkuNTYzLTIzLjIzOWw0LjQ2MywwLjM5MmMxMy41MTcsMC42MTUsMzEuMTk5LTIuMTc0LDQxLjU4Ny03YzIyLjM2Mi0xMC4zNzYsMzUuNjIyLTI3LjcsMTMuNTcyLTIzLjE0OGMtNTAuMjk3LDEwLjM3Ni01My43NTUtNi42NTUtNTMuNzU1LTYuNjU1YzUzLjExMS03OC44MDMsNzUuMzEzLTE3OC44MzYsNTYuMTQ5LTIwMy4zMjIgICAgQzM1Mi41MTQtNS41MzQsMjYyLjAzNiwyNi4wNDksMjYwLjUyMiwyNi44NjlsLTAuNDgyLDAuMDg5Yy05LjkzOC0yLjA2Mi0yMS4wNi0zLjI5NC0zMy41NTQtMy40OTZjLTIyLjc2MS0wLjM3NC00MC4wMzIsNS45NjctNTMuMTMzLDE1LjkwNGMwLDAtMTYxLjQwOC02Ni40OTgtMTUzLjg5OSw4My42MjhjMS41OTcsMzEuOTM2LDQ1Ljc3NywyNDEuNjU1LDk4LjQ3LDE3OC4zMSAgICBjMTkuMjU5LTIzLjE2MywzNy44NzEtNDIuNzQ4LDM3Ljg3MS00Mi43NDhjOS4yNDIsNi4xNCwyMC4zMDcsOS4yNzIsMzEuOTEyLDguMTQ3bDAuODk3LTAuNzY1Yy0wLjI4MSwyLjg3Ni0wLjE1Nyw1LjY4OSwwLjM1OSw5LjAxOWMtMTMuNTcyLDE1LjE2Ny05LjU4NCwxNy44My0zNi43MjMsMjMuNDE2Yy0yNy40NTcsNS42NTktMTEuMzI2LDE1LjczNC0wLjc5NywxOC4zNjdjMTIuNzY4LDMuMTkzLDQyLjMwNSw3LjcxNiw2Mi4yNjgtMjAuMjI0ICAgIGwtMC43OTUsMy4xODhjNS4zMjUsNC4yNiw0Ljk2NSwzMC42MTksNS43Miw0OS40NTJjMC43NTYsMTguODM0LDIuMDE3LDM2LjQwOSw1Ljg1Niw0Ni43NzFjMy44MzksMTAuMzYsOC4zNjksMzcuMDUsNDQuMDM2LDI5LjQwNmMyOS44MDktNi4zODgsNTIuNi0xNS41ODIsNTQuNjc3LTEwMS4xMDciIHN0eWxlPSJmaWxsOiMwMDAwMDA7c3Ryb2tlOiMwMDAwMDA7c3Ryb2tlLXdpZHRoOjM3LjM5NTM7c3Ryb2tlLWxpbmVjYXA6YnV0dDtzdHJva2UtbGluZWpvaW46bWl0ZXI7Ii8+JiN4YTs8cGF0aCBkPSJNNDAyLjM5NSwyNzEuMjNjLTUwLjMwMiwxMC4zNzYtNTMuNzYtNi42NTUtNTMuNzYtNi42NTVjNTMuMTExLTc4LjgwOCw3NS4zMTMtMTc4Ljg0Myw1Ni4xNTMtMjAzLjMyNmMtNTIuMjctNjYuNzg1LTE0Mi43NTItMzUuMi0xNDQuMjYyLTM0LjM4bC0wLjQ4NiwwLjA4N2MtOS45MzgtMi4wNjMtMjEuMDYtMy4yOTItMzMuNTYtMy40OTZjLTIyLjc2MS0wLjM3My00MC4wMjYsNS45NjctNTMuMTI3LDE1LjkwMiAgICBjMCwwLTE2MS40MTEtNjYuNDk1LTE1My45MDQsODMuNjNjMS41OTcsMzEuOTM4LDQ1Ljc3NiwyNDEuNjU3LDk4LjQ3MSwxNzguMzEyYzE5LjI2LTIzLjE2MywzNy44NjktNDIuNzQ4LDM3Ljg2OS00Mi43NDhjOS4yNDMsNi4xNCwyMC4zMDgsOS4yNzIsMzEuOTA4LDguMTQ3bDAuOTAxLTAuNzY1Yy0wLjI4LDIuODc2LTAuMTUyLDUuNjg5LDAuMzYxLDkuMDE5Yy0xMy41NzUsMTUuMTY3LTkuNTg2LDE3LjgzLTM2LjcyMywyMy40MTYgICAgYy0yNy40NTksNS42NTktMTEuMzI4LDE1LjczNC0wLjc5NiwxOC4zNjdjMTIuNzY4LDMuMTkzLDQyLjMwNyw3LjcxNiw2Mi4yNjYtMjAuMjI0bC0wLjc5NiwzLjE4OGM1LjMxOSw0LjI2LDkuMDU0LDI3LjcxMSw4LjQyOCw0OC45NjljLTAuNjI2LDIxLjI1OS0xLjA0NCwzNS44NTQsMy4xNDcsNDcuMjU0YzQuMTkxLDExLjQsOC4zNjgsMzcuMDUsNDQuMDQyLDI5LjQwNmMyOS44MDktNi4zODgsNDUuMjU2LTIyLjk0Miw0Ny40MDUtNTAuNTU1ICAgIGMxLjUyNS0xOS42MzEsNC45NzYtMTYuNzI5LDUuMTk0LTM0LjI4bDIuNzY4LTguMzA5YzMuMTkyLTI2LjYxMSwwLjUwNy0zNS4xOTYsMTguODcyLTMxLjIwM2w0LjQ2MywwLjM5MmMxMy41MTcsMC42MTUsMzEuMjA4LTIuMTc0LDQxLjU5MS03YzIyLjM1OC0xMC4zNzYsMzUuNjE4LTI3LjcsMTMuNTczLTIzLjE0OHoiIHN0eWxlPSJmaWxsOiMzMzY3OTE7c3Ryb2tlOm5vbmU7Ii8+JiN4YTs8cGF0aCBkPSJNMjE1Ljg2NiwyODYuNDg0Yy0xLjM4NSw0OS41MTYsMC4zNDgsOTkuMzc3LDUuMTkzLDExMS40OTVjNC44NDgsMTIuMTE4LDE1LjIyMywzNS42ODgsNTAuOSwyOC4wNDVjMjkuODA2LTYuMzksNDAuNjUxLTE4Ljc1Niw0NS4zNTctNDYuMDUxYzMuNDY2LTIwLjA4MiwxMC4xNDgtNzUuODU0LDExLjAwNS04Ny4yODEiLz4mI3hhOzxwYXRoIGQ9Ik0xNzMuMTA0LDM4LjI1NmMwLDAtMTYxLjUyMS02Ni4wMTYtMTU0LjAxMiw4NC4xMDljMS41OTcsMzEuOTM4LDQ1Ljc3OSwyNDEuNjY0LDk4LjQ3MywxNzguMzE2YzE5LjI1Ni0yMy4xNjYsMzYuNjcxLTQxLjMzNSwzNi42NzEtNDEuMzM1Ii8+JiN4YTs8cGF0aCBkPSJNMjYwLjM0OSwyNi4yMDdjLTUuNTkxLDEuNzUzLDg5Ljg0OC0zNC44ODksMTQ0LjA4NywzNC40MTdjMTkuMTU5LDI0LjQ4NC0zLjA0MywxMjQuNTE5LTU2LjE1MywyMDMuMzI5Ii8+JiN4YTs8cGF0aCBkPSJNMzQ4LjI4MiwyNjMuOTUzYzAsMCwzLjQ2MSwxNy4wMzYsNTMuNzY0LDYuNjUzYzIyLjA0LTQuNTUyLDguNzc2LDEyLjc3NC0xMy41NzcsMjMuMTU1Yy0xOC4zNDUsOC41MTQtNTkuNDc0LDEwLjY5Ni02MC4xNDYtMS4wNjljLTEuNzI5LTMwLjM1NSwyMS42NDctMjEuMTMzLDE5Ljk2LTI4LjczOWMtMS41MjUtNi44NS0xMS45NzktMTMuNTczLTE4Ljg5NC0zMC4zMzggICAgYy02LjAzNy0xNC42MzMtODIuNzk2LTEyNi44NDksMjEuMjg3LTExMC4xODNjMy44MTMtMC43ODktMjcuMTQ2LTk5LjAwMi0xMjQuNTUzLTEwMC41OTljLTk3LjM4NS0xLjU5Ny05NC4xOSwxMTkuNzYyLTk0LjE5LDExOS43NjIiIHN0eWxlPSJzdHJva2UtbGluZWpvaW46YmV2ZWw7Ii8+JiN4YTs8cGF0aCBkPSJNMTg4LjYwNCwyNzQuMzM0Yy0xMy41NzcsMTUuMTY2LTkuNTg0LDE3LjgyOS0zNi43MjMsMjMuNDE3Yy0yNy40NTksNS42Ni0xMS4zMjYsMTUuNzMzLTAuNzk3LDE4LjM2NWMxMi43NjgsMy4xOTUsNDIuMzA3LDcuNzE4LDYyLjI2Ni0yMC4yMjljNi4wNzgtOC41MDktMC4wMzYtMjIuMDg2LTguMzg1LTI1LjU0N2MtNC4wMzQtMS42NzEtOS40MjgtMy43NjUtMTYuMzYxLDMuOTk0eiIvPiYjeGE7PHBhdGggZD0iTTE4Ny43MTUsMjc0LjA2OWMtMS4zNjgtOC45MTcsMi45My0xOS41MjgsNy41MzYtMzEuOTQyYzYuOTIyLTE4LjYyNiwyMi44OTMtMzcuMjU1LDEwLjExNy05Ni4zMzljLTkuNTIzLTQ0LjAyOS03My4zOTYtOS4xNjMtNzMuNDM2LTMuMTkzYy0wLjAzOSw1Ljk2OCwyLjg4OSwzMC4yNi0xLjA2Nyw1OC41NDhjLTUuMTYyLDM2LjkxMywyMy40ODgsNjguMTMyLDU2LjQ3OSw2NC45MzgiLz4mI3hhOzxwYXRoIGQ9Ik0xNzIuNTE3LDE0MS43Yy0wLjI4OCwyLjAzOSwzLjczMyw3LjQ4LDguOTc2LDguMjA3YzUuMjM0LDAuNzMsOS43MTQtMy41MjIsOS45OTgtNS41NTljMC4yODQtMi4wMzktMy43MzItNC4yODUtOC45NzctNS4wMTVjLTUuMjM3LTAuNzMxLTkuNzE5LDAuMzMzLTkuOTk2LDIuMzY3eiIgc3R5bGU9ImZpbGw6I0ZGRkZGRjtzdHJva2Utd2lkdGg6NC4xNTU7c3Ryb2tlLWxpbmVjYXA6YnV0dDtzdHJva2UtbGluZWpvaW46bWl0ZXI7Ii8+JiN4YTs8cGF0aCBkPSJNMzMxLjk0MSwxMzcuNTQzYzAuMjg0LDIuMDM5LTMuNzMyLDcuNDgtOC45NzYsOC4yMDdjLTUuMjM4LDAuNzMtOS43MTgtMy41MjItMTAuMDA1LTUuNTU5Yy0wLjI3Ny0yLjAzOSwzLjc0LTQuMjg1LDguOTc5LTUuMDE1YzUuMjM5LTAuNzMsOS43MTgsMC4zMzMsMTAuMDAyLDIuMzY4eiIgc3R5bGU9ImZpbGw6I0ZGRkZGRjtzdHJva2Utd2lkdGg6Mi4wNzc1O3N0cm9rZS1saW5lY2FwOmJ1dHQ7c3Ryb2tlLWxpbmVqb2luOm1pdGVyOyIvPiYjeGE7PHBhdGggZD0iTTM1MC42NzYsMTIzLjQzMmMwLjg2MywxNS45OTQtMy40NDUsMjYuODg4LTMuOTg4LDQzLjkxNGMtMC44MDQsMjQuNzQ4LDExLjc5OSw1My4wNzQtNy4xOTEsODEuNDM1Ii8+JiN4YTs8cGF0aCBkPSJNMCw2MC4yMzIiIHN0eWxlPSJzdHJva2Utd2lkdGg6MzsiLz4mI3hhOzwvZz4mI3hhOzwvc3ZnPg==;" parent="1" vertex="1">
          <mxGeometry x="854.61" y="204" width="40.77" height="42" as="geometry" />
        </mxCell>
        <mxCell id="dYVZeftza5Ptzcx6qMnq-37" style="edgeStyle=orthogonalEdgeStyle;rounded=0;orthogonalLoop=1;jettySize=auto;html=1;exitX=1;exitY=0.5;exitDx=0;exitDy=0;entryX=0;entryY=0.5;entryDx=0;entryDy=0;" parent="1" source="dYVZeftza5Ptzcx6qMnq-8" target="dYVZeftza5Ptzcx6qMnq-21" edge="1">
          <mxGeometry relative="1" as="geometry" />
        </mxCell>
        <mxCell id="dYVZeftza5Ptzcx6qMnq-38" style="edgeStyle=orthogonalEdgeStyle;rounded=0;orthogonalLoop=1;jettySize=auto;html=1;exitX=0.5;exitY=0;exitDx=0;exitDy=0;entryX=0;entryY=0.5;entryDx=0;entryDy=0;" parent="1" source="dYVZeftza5Ptzcx6qMnq-8" target="dYVZeftza5Ptzcx6qMnq-12" edge="1">
          <mxGeometry relative="1" as="geometry" />
        </mxCell>
        <mxCell id="dYVZeftza5Ptzcx6qMnq-39" value="NodeJS" style="rounded=1;whiteSpace=wrap;html=1;arcSize=10;verticalAlign=bottom;" parent="1" vertex="1">
          <mxGeometry x="501.06999999999994" y="700" width="70" height="60" as="geometry" />
        </mxCell>
        <mxCell id="dYVZeftza5Ptzcx6qMnq-41" style="edgeStyle=orthogonalEdgeStyle;rounded=0;orthogonalLoop=1;jettySize=auto;html=1;exitX=0.5;exitY=1;exitDx=0;exitDy=0;entryX=0;entryY=0.5;entryDx=0;entryDy=0;" parent="1" source="dYVZeftza5Ptzcx6qMnq-8" target="dYVZeftza5Ptzcx6qMnq-39" edge="1">
          <mxGeometry relative="1" as="geometry" />
        </mxCell>
        <mxCell id="dYVZeftza5Ptzcx6qMnq-43" style="edgeStyle=orthogonalEdgeStyle;rounded=0;orthogonalLoop=1;jettySize=auto;html=1;exitX=0.5;exitY=1;exitDx=0;exitDy=0;entryX=0;entryY=0.5;entryDx=0;entryDy=0;" parent="1" source="dYVZeftza5Ptzcx6qMnq-8" target="dYVZeftza5Ptzcx6qMnq-25" edge="1">
          <mxGeometry relative="1" as="geometry" />
        </mxCell>
        <mxCell id="dYVZeftza5Ptzcx6qMnq-52" style="edgeStyle=orthogonalEdgeStyle;rounded=0;orthogonalLoop=1;jettySize=auto;html=1;exitX=0.5;exitY=0;exitDx=0;exitDy=0;entryX=0.75;entryY=1;entryDx=0;entryDy=0;" parent="1" source="dYVZeftza5Ptzcx6qMnq-46" target="dYVZeftza5Ptzcx6qMnq-25" edge="1">
          <mxGeometry relative="1" as="geometry" />
        </mxCell>
        <mxCell id="dYVZeftza5Ptzcx6qMnq-46" value="NodeJS" style="rounded=1;whiteSpace=wrap;html=1;arcSize=10;verticalAlign=bottom;" parent="1" vertex="1">
          <mxGeometry x="710" y="540" width="70" height="60" as="geometry" />
        </mxCell>
        <mxCell id="dYVZeftza5Ptzcx6qMnq-47" value="" style="shape=image;verticalLabelPosition=bottom;labelBackgroundColor=default;verticalAlign=top;aspect=fixed;imageAspect=0;image=data:image/svg+xml,PHN2ZyBwcmVzZXJ2ZUFzcGVjdFJhdGlvPSJ4TWlkWU1pZCIgeG1sbnM6eGxpbms9Imh0dHA6Ly93d3cudzMub3JnLzE5OTkveGxpbmsiIHhtbG5zPSJodHRwOi8vd3d3LnczLm9yZy8yMDAwL3N2ZyIgdmVyc2lvbj0iMS4xIiB2aWV3Qm94PSIwIDAgMjU2IDI4OSIgaGVpZ2h0PSIyODlweCIgd2lkdGg9IjI1NnB4Ij4mI3hhOyAgICA8Zz4mI3hhOyAgICAgICAgPHBhdGggZmlsbD0iIzUzOUU0MyIgZD0iTTEyNy45OTk5OTksMjg4LjQ2Mzc3MSBDMTI0LjAyNDg0NCwyODguNDYzNzcxIDEyMC4zMTQ2OTksMjg3LjQwMzcyOCAxMTYuODY5NTY0LDI4NS41NDg2NTYgTDgxLjYyMzE4ODQsMjY0LjYxMjgzOCBDNzYuMzIyOTgsMjYxLjY5NzcyNCA3OC45NzMwODU0LDI2MC42Mzc2ODIgODAuNTYzMTQ1OCwyNjAuMTA3NjYxIEM4Ny43MTg0MjU5LDI1Ny43MjI1NyA4OS4wNDM0Nzc1LDI1Ny4xOTI1NDcgOTYuNDYzNzY4OCwyNTIuOTUyMzgxIEM5Ny4yNTg3OTc5LDI1Mi40MjIzNjEgOTguMzE4ODQwNSwyNTIuNjg3MzcyIDk5LjExMzg3MTgsMjUzLjIxNzM5MiBMMTI2LjE0NDkyNywyNjkuMzgzMDI0IEMxMjcuMjA0OTcsMjY5LjkxMzA0NSAxMjguNTMwMDIxLDI2OS45MTMwNDUgMTI5LjMyNTA1MywyNjkuMzgzMDI0IEwyMzUuMDY0MTgyLDIwOC4xNjU2MzQgQzIzNi4xMjQyMjUsMjA3LjYzNTYxMSAyMzYuNjU0MjQ1LDIwNi41NzU1NzEgMjM2LjY1NDI0NSwyMDUuMjUwNTE5IEwyMzYuNjU0MjQ1LDgzLjA4MDc0NjcgQzIzNi42NTQyNDUsODEuNzU1NjkyOSAyMzYuMTI0MjI1LDgwLjY5NTY1MjYgMjM1LjA2NDE4Miw4MC4xNjU2MzI0IEwxMjkuMzI1MDUzLDE5LjIxMzI1MDYgQzEyOC4yNjUwMSwxOC42ODMyMzA1IDEyNi45Mzk5NTksMTguNjgzMjMwNSAxMjYuMTQ0OTI3LDE5LjIxMzI1MDYgTDIwLjQwNTc5NTQsODAuMTY1NjMyNCBDMTkuMzQ1NzU1MSw4MC42OTU2NTI2IDE4LjgxNTczNDksODIuMDIwNzA0MSAxOC44MTU3MzQ5LDgzLjA4MDc0NjcgTDE4LjgxNTczNDksMjA1LjI1MDUxOSBDMTguODE1NzM0OSwyMDYuMzEwNTYgMTkuMzQ1NzU1MSwyMDcuNjM1NjExIDIwLjQwNTc5NTQsMjA4LjE2NTYzNCBMNDkuMjkxOTI0NywyMjQuODYxMjg2IEM2NC45Mjc1MzY0LDIzMi44MTE1OTUgNzQuNzMyOTE5NiwyMjMuNTM2MjM0IDc0LjczMjkxOTYsMjE0LjI2MDg3MSBMNzQuNzMyOTE5Niw5My42ODExNTkgQzc0LjczMjkxOTYsOTIuMDkxMDk4NSA3Ni4wNTc5NzExLDkwLjUwMTAzNTggNzcuOTEzMDQyOCw5MC41MDEwMzU4IEw5MS40Mjg1NzE2LDkwLjUwMTAzNTggQzkzLjAxODYzNDMsOTAuNTAxMDM1OCA5NC42MDg2OTQ4LDkxLjgyNjA4NzMgOTQuNjA4Njk0OCw5My42ODExNTkgTDk0LjYwODY5NDgsMjE0LjI2MDg3MSBDOTQuNjA4Njk0OCwyMzUuMTk2Njg5IDgzLjIxMzI1MTIsMjQ3LjM4NzE2NCA2My4zMzc0NzM3LDI0Ny4zODcxNjQgQzU3LjI0MjIzNjIsMjQ3LjM4NzE2NCA1Mi40NzIwNTAyLDI0Ny4zODcxNjQgMzguOTU2NTIxNCwyNDAuNzYxOTA2IEwxMS4xMzA0MzQ3LDIyNC44NjEyODYgQzQuMjQwMTY1ODEsMjIwLjg4NjEyOSA1LjY4NDM0MTg5ZS0xNCwyMTMuNDY1ODQgNS42ODQzNDE4OWUtMTQsMjA1LjUxNTUyOCBMNS42ODQzNDE4OWUtMTQsODMuMzQ1NzU1NyBDNS42ODQzNDE4OWUtMTQsNzUuMzk1NDQ2NSA0LjI0MDE2NTgxLDY3Ljk3NTE1NTIgMTEuMTMwNDM0Nyw2NC4wMDAwMDA2IEwxMTYuODY5NTY0LDIuNzgyNjA3NTIgQzEyMy40OTQ4MjQsLTAuOTI3NTM1ODQxIDEzMi41MDUxNzYsLTAuOTI3NTM1ODQxIDEzOS4xMzA0MzYsMi43ODI2MDc1MiBMMjQ0Ljg2OTU2NSw2NC4wMDAwMDA2IEMyNTEuNzU5ODM0LDY3Ljk3NTE1NTIgMjU2LDc1LjM5NTQ0NjUgMjU2LDgzLjM0NTc1NTcgTDI1NiwyMDUuNTE1NTI4IEMyNTYsMjEzLjQ2NTg0IDI1MS43NTk4MzQsMjIwLjg4NjEyOSAyNDQuODY5NTY1LDIyNC44NjEyODYgTDEzOS4xMzA0MzYsMjg2LjA3ODY3NiBDMTM1LjY4NTI5OSwyODcuNjY4NzM5IDEzMS43MTAxNDUsMjg4LjQ2Mzc3MSAxMjcuOTk5OTk5LDI4OC40NjM3NzEgTDEyNy45OTk5OTksMjg4LjQ2Mzc3MSBaIE0xNjAuNTk2Mjc0LDIwNC40NTU0ODggQzExNC4yMTk0NjEsMjA0LjQ1NTQ4OCAxMDQuNjc5MDg5LDE4My4yNTQ2NTkgMTA0LjY3OTA4OSwxNjUuMjMzOTU1IEMxMDQuNjc5MDg5LDE2My42NDM4OTMgMTA2LjAwNDE0MSwxNjIuMDUzODMyIDEwNy44NTkyMTIsMTYyLjA1MzgzMiBMMTIxLjYzOTc1MiwxNjIuMDUzODMyIEMxMjMuMjI5ODEzLDE2Mi4wNTM4MzIgMTI0LjU1NDg2NCwxNjMuMTEzODcyIDEyNC41NTQ4NjQsMTY0LjcwMzkzNSBDMTI2LjY3NDk0NywxNzguNzQ5NDg0IDEzMi43NzAxODcsMTg1LjYzOTc1MyAxNjAuODYxMjgzLDE4NS42Mzk3NTMgQzE4My4xMjIxNTQsMTg1LjYzOTc1MyAxOTIuNjYyNTI2LDE4MC42MDQ1NTYgMTkyLjY2MjUyNiwxNjguNjc5MDkgQzE5Mi42NjI1MjYsMTYxLjc4ODgyMSAxOTAuMDEyNDIzLDE1Ni43NTM2MjQgMTU1LjI5NjA2NSwxNTMuMzA4NDg5IEMxMjYuNDA5OTM4LDE1MC4zOTMzNzUgMTA4LjM4OTIzNSwxNDQuMDMzMTI2IDEwOC4zODkyMzUsMTIwLjk3NzIyNiBDMTA4LjM4OTIzNSw5OS41MTEzODc1IDEyNi40MDk5MzgsODYuNzkwODkwMSAxNTYuNjIxMTE5LDg2Ljc5MDg5MDEgQzE5MC41NDI0NDMsODYuNzkwODkwMSAyMDcuMjM4MDk1LDk4LjQ1MTM0NzIgMjA5LjM1ODE3OCwxMjMuODkyMzQgQzIwOS4zNTgxNzgsMTI0LjY4NzM3MSAyMDkuMDkzMTY3LDEyNS40ODI0MDMgMjA4LjU2MzE0NywxMjYuMjc3NDM0IEMyMDguMDMzMTI3LDEyNi44MDc0NTQgMjA3LjIzODA5NSwxMjcuMzM3NDc0IDIwNi40NDMwNjQsMTI3LjMzNzQ3NCBMMTkyLjY2MjUyNiwxMjcuMzM3NDc0IEMxOTEuMzM3NDc1LDEyNy4zMzc0NzQgMTkwLjAxMjQyMywxMjYuMjc3NDM0IDE4OS43NDc0MTIsMTI0Ljk1MjM4MiBDMTg2LjU2NzI4OSwxMTAuMzc2ODEzIDE3OC4zNTE5NjYsMTA1LjYwNjYyNSAxNTYuNjIxMTE5LDEwNS42MDY2MjUgQzEzMi4yNDAxNjUsMTA1LjYwNjYyNSAxMjkuMzI1MDUzLDExNC4wODY5NTcgMTI5LjMyNTA1MywxMjAuNDQ3MjA1IEMxMjkuMzI1MDUzLDEyOC4xMzI1MDYgMTMyLjc3MDE4NywxMzAuNTE3NiAxNjUuNjMxNDcxLDEzNC43NTc3NjYgQzE5OC4yMjc3NDQsMTM4Ljk5NzkzMSAyMTMuNTk4MzQ0LDE0NS4wOTMxNjkgMjEzLjU5ODM0NCwxNjcuODg0MDU4IEMyMTMuMzMzMzMzLDE5MS4yMDQ5NyAxOTQuMjUyNTg5LDIwNC40NTU0ODggMTYwLjU5NjI3NCwyMDQuNDU1NDg4IEwxNjAuNTk2Mjc0LDIwNC40NTU0ODggWiIvPiYjeGE7ICAgIDwvZz4mI3hhOzwvc3ZnPg==;" parent="1" vertex="1">
          <mxGeometry x="728" y="545" width="33.66" height="38" as="geometry" />
        </mxCell>
        <mxCell id="dYVZeftza5Ptzcx6qMnq-55" style="edgeStyle=orthogonalEdgeStyle;rounded=0;orthogonalLoop=1;jettySize=auto;html=1;exitX=1;exitY=0.5;exitDx=0;exitDy=0;entryX=0;entryY=0.5;entryDx=0;entryDy=0;entryPerimeter=0;" parent="1" source="dYVZeftza5Ptzcx6qMnq-12" target="dYVZeftza5Ptzcx6qMnq-35" edge="1">
          <mxGeometry relative="1" as="geometry" />
        </mxCell>
        <mxCell id="dYVZeftza5Ptzcx6qMnq-80" style="edgeStyle=orthogonalEdgeStyle;rounded=0;orthogonalLoop=1;jettySize=auto;html=1;exitX=1;exitY=0.5;exitDx=0;exitDy=0;entryX=1;entryY=0.5;entryDx=0;entryDy=0;" parent="1" target="dYVZeftza5Ptzcx6qMnq-61" edge="1">
          <mxGeometry relative="1" as="geometry">
            <mxPoint x="970" y="730" as="sourcePoint" />
          </mxGeometry>
        </mxCell>
        <mxCell id="OE27xe69D5moh9TOhAk3-7" style="edgeStyle=orthogonalEdgeStyle;rounded=0;orthogonalLoop=1;jettySize=auto;html=1;exitX=0;exitY=0.5;exitDx=0;exitDy=0;entryX=0.989;entryY=0.379;entryDx=0;entryDy=0;entryPerimeter=0;" edge="1" parent="1" source="dYVZeftza5Ptzcx6qMnq-61" target="OE27xe69D5moh9TOhAk3-3">
          <mxGeometry relative="1" as="geometry">
            <mxPoint x="800" y="740" as="targetPoint" />
          </mxGeometry>
        </mxCell>
        <mxCell id="dYVZeftza5Ptzcx6qMnq-61" value="Fluentbit" style="rounded=1;whiteSpace=wrap;html=1;arcSize=10;verticalAlign=bottom;" parent="1" vertex="1">
          <mxGeometry x="839.83" y="700" width="70" height="60" as="geometry" />
        </mxCell>
        <mxCell id="dYVZeftza5Ptzcx6qMnq-65" value="" style="endArrow=none;dashed=1;html=1;rounded=0;" parent="1" edge="1">
          <mxGeometry width="50" height="50" relative="1" as="geometry">
            <mxPoint x="280" y="730" as="sourcePoint" />
            <mxPoint x="280" y="180" as="targetPoint" />
          </mxGeometry>
        </mxCell>
        <mxCell id="dYVZeftza5Ptzcx6qMnq-66" value="" style="shape=cylinder3;whiteSpace=wrap;html=1;boundedLbl=1;backgroundOutline=1;size=15;" parent="1" vertex="1">
          <mxGeometry x="440" y="489" width="30" height="45" as="geometry" />
        </mxCell>
        <mxCell id="dYVZeftza5Ptzcx6qMnq-69" value="" style="shape=cylinder3;whiteSpace=wrap;html=1;boundedLbl=1;backgroundOutline=1;size=15;" parent="1" vertex="1">
          <mxGeometry x="440" y="543" width="30" height="45" as="geometry" />
        </mxCell>
        <mxCell id="dYVZeftza5Ptzcx6qMnq-70" value="" style="shape=cylinder3;whiteSpace=wrap;html=1;boundedLbl=1;backgroundOutline=1;size=15;" parent="1" vertex="1">
          <mxGeometry x="440" y="594" width="30" height="45" as="geometry" />
        </mxCell>
        <mxCell id="dYVZeftza5Ptzcx6qMnq-71" style="rounded=0;orthogonalLoop=1;jettySize=auto;html=1;entryX=1;entryY=0.5;entryDx=0;entryDy=0;entryPerimeter=0;" parent="1" target="dYVZeftza5Ptzcx6qMnq-66" edge="1">
          <mxGeometry relative="1" as="geometry">
            <mxPoint x="500" y="570" as="sourcePoint" />
          </mxGeometry>
        </mxCell>
        <mxCell id="dYVZeftza5Ptzcx6qMnq-72" style="rounded=0;orthogonalLoop=1;jettySize=auto;html=1;exitX=0;exitY=0.5;exitDx=0;exitDy=0;entryX=1;entryY=0.5;entryDx=0;entryDy=0;entryPerimeter=0;" parent="1" source="dYVZeftza5Ptzcx6qMnq-31" target="dYVZeftza5Ptzcx6qMnq-70" edge="1">
          <mxGeometry relative="1" as="geometry" />
        </mxCell>
        <mxCell id="dYVZeftza5Ptzcx6qMnq-73" style="edgeStyle=orthogonalEdgeStyle;rounded=0;orthogonalLoop=1;jettySize=auto;html=1;exitX=0;exitY=0.5;exitDx=0;exitDy=0;entryX=1;entryY=0;entryDx=0;entryDy=26.25;entryPerimeter=0;" parent="1" source="dYVZeftza5Ptzcx6qMnq-31" target="dYVZeftza5Ptzcx6qMnq-69" edge="1">
          <mxGeometry relative="1" as="geometry" />
        </mxCell>
        <mxCell id="dYVZeftza5Ptzcx6qMnq-76" style="edgeStyle=orthogonalEdgeStyle;rounded=0;orthogonalLoop=1;jettySize=auto;html=1;exitX=0.5;exitY=0;exitDx=0;exitDy=0;entryX=0.5;entryY=1;entryDx=0;entryDy=0;entryPerimeter=0;" parent="1" source="dYVZeftza5Ptzcx6qMnq-27" target="dYVZeftza5Ptzcx6qMnq-35" edge="1">
          <mxGeometry relative="1" as="geometry" />
        </mxCell>
        <mxCell id="dYVZeftza5Ptzcx6qMnq-77" value="GitLab" style="rounded=1;whiteSpace=wrap;html=1;arcSize=10;verticalAlign=bottom;" parent="1" vertex="1">
          <mxGeometry x="1140" y="400" width="70" height="60" as="geometry" />
        </mxCell>
        <mxCell id="dYVZeftza5Ptzcx6qMnq-74" value="" style="shape=image;verticalLabelPosition=bottom;labelBackgroundColor=default;verticalAlign=top;aspect=fixed;imageAspect=0;image=data:image/svg+xml,PHN2ZyBwcmVzZXJ2ZUFzcGVjdFJhdGlvPSJ4TWluWU1pbiBtZWV0IiB4bWxucz0iaHR0cDovL3d3dy53My5vcmcvMjAwMC9zdmciIHZpZXdCb3g9IjAgMCAyNTYgMjM2IiBoZWlnaHQ9IjIzMDUiIHdpZHRoPSIyNTAwIj48cGF0aCBmaWxsPSIjRTI0MzI5IiBkPSJNMTI4LjA3NSAyMzYuMDc1bDQ3LjEwNC0xNDQuOTdIODAuOTdsNDcuMTA0IDE0NC45N3oiLz48cGF0aCBmaWxsPSIjRkM2RDI2IiBkPSJNMTI4LjA3NSAyMzYuMDc0TDgwLjk3IDkxLjEwNEgxNC45NTZsMTEzLjExOSAxNDQuOTd6Ii8+PHBhdGggZmlsbD0iI0ZDQTMyNiIgZD0iTTE0Ljk1NiA5MS4xMDRMLjY0MiAxMzUuMTZhOS43NTIgOS43NTIgMCAwIDAgMy41NDIgMTAuOTAzbDEyMy44OTEgOTAuMDEyLTExMy4xMi0xNDQuOTd6Ii8+PHBhdGggZmlsbD0iI0UyNDMyOSIgZD0iTTE0Ljk1NiA5MS4xMDVIODAuOTdMNTIuNjAxIDMuNzljLTEuNDYtNC40OTMtNy44MTYtNC40OTItOS4yNzUgMGwtMjguMzcgODcuMzE1eiIvPjxwYXRoIGZpbGw9IiNGQzZEMjYiIGQ9Ik0xMjguMDc1IDIzNi4wNzRsNDcuMTA0LTE0NC45N2g2Ni4wMTVsLTExMy4xMiAxNDQuOTd6Ii8+PHBhdGggZmlsbD0iI0ZDQTMyNiIgZD0iTTI0MS4xOTQgOTEuMTA0bDE0LjMxNCA0NC4wNTZhOS43NTIgOS43NTIgMCAwIDEtMy41NDMgMTAuOTAzbC0xMjMuODkgOTAuMDEyIDExMy4xMTktMTQ0Ljk3eiIvPjxwYXRoIGZpbGw9IiNFMjQzMjkiIGQ9Ik0yNDEuMTk0IDkxLjEwNWgtNjYuMDE1bDI4LjM3LTg3LjMxNWMxLjQ2LTQuNDkzIDcuODE2LTQuNDkyIDkuMjc1IDBsMjguMzcgODcuMzE1eiIvPjwvc3ZnPg==;" parent="1" vertex="1">
          <mxGeometry x="1156.01" y="402.5" width="37.98" height="35" as="geometry" />
        </mxCell>
        <mxCell id="dYVZeftza5Ptzcx6qMnq-79" value="" style="endArrow=none;dashed=1;html=1;rounded=0;" parent="1" edge="1">
          <mxGeometry width="50" height="50" relative="1" as="geometry">
            <mxPoint x="1120" y="730" as="sourcePoint" />
            <mxPoint x="1120" y="180" as="targetPoint" />
          </mxGeometry>
        </mxCell>
        <mxCell id="dYVZeftza5Ptzcx6qMnq-81" value="Logs" style="text;html=1;align=center;verticalAlign=middle;whiteSpace=wrap;rounded=0;" parent="1" vertex="1">
          <mxGeometry x="957" y="715" width="60" height="30" as="geometry" />
        </mxCell>
        <mxCell id="dYVZeftza5Ptzcx6qMnq-82" value="O-Auth Provider" style="text;html=1;align=center;verticalAlign=middle;whiteSpace=wrap;rounded=0;" parent="1" vertex="1">
          <mxGeometry x="490" y="160" width="90" height="20" as="geometry" />
        </mxCell>
        <mxCell id="dYVZeftza5Ptzcx6qMnq-83" value="O-Auth Client" style="text;html=1;align=center;verticalAlign=middle;whiteSpace=wrap;rounded=0;" parent="1" vertex="1">
          <mxGeometry x="490" y="340" width="90" height="20" as="geometry" />
        </mxCell>
        <mxCell id="dYVZeftza5Ptzcx6qMnq-84" value="Session Store" style="text;html=1;align=center;verticalAlign=middle;whiteSpace=wrap;rounded=0;" parent="1" vertex="1">
          <mxGeometry x="600" y="260" width="90" height="20" as="geometry" />
        </mxCell>
        <mxCell id="dYVZeftza5Ptzcx6qMnq-85" value="Frontend" style="text;html=1;align=center;verticalAlign=middle;whiteSpace=wrap;rounded=0;" parent="1" vertex="1">
          <mxGeometry x="490" y="380" width="90" height="20" as="geometry" />
        </mxCell>
        <mxCell id="dYVZeftza5Ptzcx6qMnq-86" value="Visualization" style="text;html=1;align=center;verticalAlign=middle;whiteSpace=wrap;rounded=0;" parent="1" vertex="1">
          <mxGeometry x="500" y="613" width="90" height="20" as="geometry" />
        </mxCell>
        <mxCell id="dYVZeftza5Ptzcx6qMnq-87" value="Registry" style="text;html=1;align=center;verticalAlign=middle;whiteSpace=wrap;rounded=0;" parent="1" vertex="1">
          <mxGeometry x="700" y="600" width="90" height="20" as="geometry" />
        </mxCell>
        <mxCell id="dYVZeftza5Ptzcx6qMnq-88" value="Scheduler" style="text;html=1;align=center;verticalAlign=middle;whiteSpace=wrap;rounded=0;" parent="1" vertex="1">
          <mxGeometry x="830" y="600" width="90" height="20" as="geometry" />
        </mxCell>
        <mxCell id="dYVZeftza5Ptzcx6qMnq-89" value="DB" style="text;html=1;align=center;verticalAlign=middle;whiteSpace=wrap;rounded=0;" parent="1" vertex="1">
          <mxGeometry x="829" y="150" width="90" height="20" as="geometry" />
        </mxCell>
        <mxCell id="dYVZeftza5Ptzcx6qMnq-90" value="Repo" style="text;html=1;align=center;verticalAlign=middle;whiteSpace=wrap;rounded=0;" parent="1" vertex="1">
          <mxGeometry x="810.38" y="380" width="90" height="20" as="geometry" />
        </mxCell>
        <mxCell id="dYVZeftza5Ptzcx6qMnq-91" value="Proxy" style="text;html=1;align=center;verticalAlign=middle;whiteSpace=wrap;rounded=0;" parent="1" vertex="1">
          <mxGeometry x="299" y="259" width="90" height="20" as="geometry" />
        </mxCell>
        <mxCell id="dYVZeftza5Ptzcx6qMnq-92" value="Dashboard" style="text;html=1;align=center;verticalAlign=middle;whiteSpace=wrap;rounded=0;" parent="1" vertex="1">
          <mxGeometry x="489.65999999999997" y="680" width="90" height="20" as="geometry" />
        </mxCell>
        <mxCell id="dYVZeftza5Ptzcx6qMnq-93" value="Log Aggregator" style="text;html=1;align=center;verticalAlign=middle;whiteSpace=wrap;rounded=0;" parent="1" vertex="1">
          <mxGeometry x="830" y="680" width="90" height="20" as="geometry" />
        </mxCell>
        <mxCell id="dYVZeftza5Ptzcx6qMnq-102" value="" style="rounded=1;whiteSpace=wrap;html=1;fillColor=none;dashed=1;arcSize=8;strokeColor=#EDB147;movable=1;resizable=1;rotatable=1;deletable=1;editable=1;locked=0;connectable=1;" parent="1" vertex="1">
          <mxGeometry x="420" y="680" width="660" height="110" as="geometry" />
        </mxCell>
        <mxCell id="dTVzYgWPUEsBKpjI8WKp-4" style="edgeStyle=orthogonalEdgeStyle;rounded=0;orthogonalLoop=1;jettySize=auto;html=1;exitX=1;exitY=0.5;exitDx=0;exitDy=0;entryX=0.5;entryY=1;entryDx=0;entryDy=0;" parent="1" source="dTVzYgWPUEsBKpjI8WKp-1" target="dYVZeftza5Ptzcx6qMnq-77" edge="1">
          <mxGeometry relative="1" as="geometry" />
        </mxCell>
        <mxCell id="dTVzYgWPUEsBKpjI8WKp-1" value="NodeJS" style="rounded=1;whiteSpace=wrap;html=1;arcSize=10;verticalAlign=bottom;" parent="1" vertex="1">
          <mxGeometry x="939.62" y="469" width="70" height="60" as="geometry" />
        </mxCell>
        <mxCell id="dTVzYgWPUEsBKpjI8WKp-2" value="" style="shape=image;verticalLabelPosition=bottom;labelBackgroundColor=default;verticalAlign=top;aspect=fixed;imageAspect=0;image=data:image/svg+xml,PHN2ZyBwcmVzZXJ2ZUFzcGVjdFJhdGlvPSJ4TWlkWU1pZCIgeG1sbnM6eGxpbms9Imh0dHA6Ly93d3cudzMub3JnLzE5OTkveGxpbmsiIHhtbG5zPSJodHRwOi8vd3d3LnczLm9yZy8yMDAwL3N2ZyIgdmVyc2lvbj0iMS4xIiB2aWV3Qm94PSIwIDAgMjU2IDI4OSIgaGVpZ2h0PSIyODlweCIgd2lkdGg9IjI1NnB4Ij4mI3hhOyAgICA8Zz4mI3hhOyAgICAgICAgPHBhdGggZmlsbD0iIzUzOUU0MyIgZD0iTTEyNy45OTk5OTksMjg4LjQ2Mzc3MSBDMTI0LjAyNDg0NCwyODguNDYzNzcxIDEyMC4zMTQ2OTksMjg3LjQwMzcyOCAxMTYuODY5NTY0LDI4NS41NDg2NTYgTDgxLjYyMzE4ODQsMjY0LjYxMjgzOCBDNzYuMzIyOTgsMjYxLjY5NzcyNCA3OC45NzMwODU0LDI2MC42Mzc2ODIgODAuNTYzMTQ1OCwyNjAuMTA3NjYxIEM4Ny43MTg0MjU5LDI1Ny43MjI1NyA4OS4wNDM0Nzc1LDI1Ny4xOTI1NDcgOTYuNDYzNzY4OCwyNTIuOTUyMzgxIEM5Ny4yNTg3OTc5LDI1Mi40MjIzNjEgOTguMzE4ODQwNSwyNTIuNjg3MzcyIDk5LjExMzg3MTgsMjUzLjIxNzM5MiBMMTI2LjE0NDkyNywyNjkuMzgzMDI0IEMxMjcuMjA0OTcsMjY5LjkxMzA0NSAxMjguNTMwMDIxLDI2OS45MTMwNDUgMTI5LjMyNTA1MywyNjkuMzgzMDI0IEwyMzUuMDY0MTgyLDIwOC4xNjU2MzQgQzIzNi4xMjQyMjUsMjA3LjYzNTYxMSAyMzYuNjU0MjQ1LDIwNi41NzU1NzEgMjM2LjY1NDI0NSwyMDUuMjUwNTE5IEwyMzYuNjU0MjQ1LDgzLjA4MDc0NjcgQzIzNi42NTQyNDUsODEuNzU1NjkyOSAyMzYuMTI0MjI1LDgwLjY5NTY1MjYgMjM1LjA2NDE4Miw4MC4xNjU2MzI0IEwxMjkuMzI1MDUzLDE5LjIxMzI1MDYgQzEyOC4yNjUwMSwxOC42ODMyMzA1IDEyNi45Mzk5NTksMTguNjgzMjMwNSAxMjYuMTQ0OTI3LDE5LjIxMzI1MDYgTDIwLjQwNTc5NTQsODAuMTY1NjMyNCBDMTkuMzQ1NzU1MSw4MC42OTU2NTI2IDE4LjgxNTczNDksODIuMDIwNzA0MSAxOC44MTU3MzQ5LDgzLjA4MDc0NjcgTDE4LjgxNTczNDksMjA1LjI1MDUxOSBDMTguODE1NzM0OSwyMDYuMzEwNTYgMTkuMzQ1NzU1MSwyMDcuNjM1NjExIDIwLjQwNTc5NTQsMjA4LjE2NTYzNCBMNDkuMjkxOTI0NywyMjQuODYxMjg2IEM2NC45Mjc1MzY0LDIzMi44MTE1OTUgNzQuNzMyOTE5NiwyMjMuNTM2MjM0IDc0LjczMjkxOTYsMjE0LjI2MDg3MSBMNzQuNzMyOTE5Niw5My42ODExNTkgQzc0LjczMjkxOTYsOTIuMDkxMDk4NSA3Ni4wNTc5NzExLDkwLjUwMTAzNTggNzcuOTEzMDQyOCw5MC41MDEwMzU4IEw5MS40Mjg1NzE2LDkwLjUwMTAzNTggQzkzLjAxODYzNDMsOTAuNTAxMDM1OCA5NC42MDg2OTQ4LDkxLjgyNjA4NzMgOTQuNjA4Njk0OCw5My42ODExNTkgTDk0LjYwODY5NDgsMjE0LjI2MDg3MSBDOTQuNjA4Njk0OCwyMzUuMTk2Njg5IDgzLjIxMzI1MTIsMjQ3LjM4NzE2NCA2My4zMzc0NzM3LDI0Ny4zODcxNjQgQzU3LjI0MjIzNjIsMjQ3LjM4NzE2NCA1Mi40NzIwNTAyLDI0Ny4zODcxNjQgMzguOTU2NTIxNCwyNDAuNzYxOTA2IEwxMS4xMzA0MzQ3LDIyNC44NjEyODYgQzQuMjQwMTY1ODEsMjIwLjg4NjEyOSA1LjY4NDM0MTg5ZS0xNCwyMTMuNDY1ODQgNS42ODQzNDE4OWUtMTQsMjA1LjUxNTUyOCBMNS42ODQzNDE4OWUtMTQsODMuMzQ1NzU1NyBDNS42ODQzNDE4OWUtMTQsNzUuMzk1NDQ2NSA0LjI0MDE2NTgxLDY3Ljk3NTE1NTIgMTEuMTMwNDM0Nyw2NC4wMDAwMDA2IEwxMTYuODY5NTY0LDIuNzgyNjA3NTIgQzEyMy40OTQ4MjQsLTAuOTI3NTM1ODQxIDEzMi41MDUxNzYsLTAuOTI3NTM1ODQxIDEzOS4xMzA0MzYsMi43ODI2MDc1MiBMMjQ0Ljg2OTU2NSw2NC4wMDAwMDA2IEMyNTEuNzU5ODM0LDY3Ljk3NTE1NTIgMjU2LDc1LjM5NTQ0NjUgMjU2LDgzLjM0NTc1NTcgTDI1NiwyMDUuNTE1NTI4IEMyNTYsMjEzLjQ2NTg0IDI1MS43NTk4MzQsMjIwLjg4NjEyOSAyNDQuODY5NTY1LDIyNC44NjEyODYgTDEzOS4xMzA0MzYsMjg2LjA3ODY3NiBDMTM1LjY4NTI5OSwyODcuNjY4NzM5IDEzMS43MTAxNDUsMjg4LjQ2Mzc3MSAxMjcuOTk5OTk5LDI4OC40NjM3NzEgTDEyNy45OTk5OTksMjg4LjQ2Mzc3MSBaIE0xNjAuNTk2Mjc0LDIwNC40NTU0ODggQzExNC4yMTk0NjEsMjA0LjQ1NTQ4OCAxMDQuNjc5MDg5LDE4My4yNTQ2NTkgMTA0LjY3OTA4OSwxNjUuMjMzOTU1IEMxMDQuNjc5MDg5LDE2My42NDM4OTMgMTA2LjAwNDE0MSwxNjIuMDUzODMyIDEwNy44NTkyMTIsMTYyLjA1MzgzMiBMMTIxLjYzOTc1MiwxNjIuMDUzODMyIEMxMjMuMjI5ODEzLDE2Mi4wNTM4MzIgMTI0LjU1NDg2NCwxNjMuMTEzODcyIDEyNC41NTQ4NjQsMTY0LjcwMzkzNSBDMTI2LjY3NDk0NywxNzguNzQ5NDg0IDEzMi43NzAxODcsMTg1LjYzOTc1MyAxNjAuODYxMjgzLDE4NS42Mzk3NTMgQzE4My4xMjIxNTQsMTg1LjYzOTc1MyAxOTIuNjYyNTI2LDE4MC42MDQ1NTYgMTkyLjY2MjUyNiwxNjguNjc5MDkgQzE5Mi42NjI1MjYsMTYxLjc4ODgyMSAxOTAuMDEyNDIzLDE1Ni43NTM2MjQgMTU1LjI5NjA2NSwxNTMuMzA4NDg5IEMxMjYuNDA5OTM4LDE1MC4zOTMzNzUgMTA4LjM4OTIzNSwxNDQuMDMzMTI2IDEwOC4zODkyMzUsMTIwLjk3NzIyNiBDMTA4LjM4OTIzNSw5OS41MTEzODc1IDEyNi40MDk5MzgsODYuNzkwODkwMSAxNTYuNjIxMTE5LDg2Ljc5MDg5MDEgQzE5MC41NDI0NDMsODYuNzkwODkwMSAyMDcuMjM4MDk1LDk4LjQ1MTM0NzIgMjA5LjM1ODE3OCwxMjMuODkyMzQgQzIwOS4zNTgxNzgsMTI0LjY4NzM3MSAyMDkuMDkzMTY3LDEyNS40ODI0MDMgMjA4LjU2MzE0NywxMjYuMjc3NDM0IEMyMDguMDMzMTI3LDEyNi44MDc0NTQgMjA3LjIzODA5NSwxMjcuMzM3NDc0IDIwNi40NDMwNjQsMTI3LjMzNzQ3NCBMMTkyLjY2MjUyNiwxMjcuMzM3NDc0IEMxOTEuMzM3NDc1LDEyNy4zMzc0NzQgMTkwLjAxMjQyMywxMjYuMjc3NDM0IDE4OS43NDc0MTIsMTI0Ljk1MjM4MiBDMTg2LjU2NzI4OSwxMTAuMzc2ODEzIDE3OC4zNTE5NjYsMTA1LjYwNjYyNSAxNTYuNjIxMTE5LDEwNS42MDY2MjUgQzEzMi4yNDAxNjUsMTA1LjYwNjYyNSAxMjkuMzI1MDUzLDExNC4wODY5NTcgMTI5LjMyNTA1MywxMjAuNDQ3MjA1IEMxMjkuMzI1MDUzLDEyOC4xMzI1MDYgMTMyLjc3MDE4NywxMzAuNTE3NiAxNjUuNjMxNDcxLDEzNC43NTc3NjYgQzE5OC4yMjc3NDQsMTM4Ljk5NzkzMSAyMTMuNTk4MzQ0LDE0NS4wOTMxNjkgMjEzLjU5ODM0NCwxNjcuODg0MDU4IEMyMTMuMzMzMzMzLDE5MS4yMDQ5NyAxOTQuMjUyNTg5LDIwNC40NTU0ODggMTYwLjU5NjI3NCwyMDQuNDU1NDg4IEwxNjAuNTk2Mjc0LDIwNC40NTU0ODggWiIvPiYjeGE7ICAgIDwvZz4mI3hhOzwvc3ZnPg==;" parent="1" vertex="1">
          <mxGeometry x="957.62" y="474" width="32" height="36.13" as="geometry" />
        </mxCell>
        <mxCell id="dTVzYgWPUEsBKpjI8WKp-3" value="API-Bridge" style="text;html=1;align=center;verticalAlign=middle;whiteSpace=wrap;rounded=0;" parent="1" vertex="1">
          <mxGeometry x="970" y="449" width="90" height="20" as="geometry" />
        </mxCell>
        <mxCell id="dTVzYgWPUEsBKpjI8WKp-7" style="edgeStyle=orthogonalEdgeStyle;rounded=0;orthogonalLoop=1;jettySize=auto;html=1;exitX=1;exitY=0.75;exitDx=0;exitDy=0;entryX=0.75;entryY=1;entryDx=0;entryDy=0;" parent="1" source="dYVZeftza5Ptzcx6qMnq-31" target="dTVzYgWPUEsBKpjI8WKp-1" edge="1">
          <mxGeometry relative="1" as="geometry">
            <mxPoint x="580" y="580" as="sourcePoint" />
            <mxPoint x="720" y="580" as="targetPoint" />
            <Array as="points">
              <mxPoint x="640" y="585" />
              <mxPoint x="640" y="630" />
              <mxPoint x="992" y="630" />
            </Array>
          </mxGeometry>
        </mxCell>
        <mxCell id="dTVzYgWPUEsBKpjI8WKp-9" style="edgeStyle=orthogonalEdgeStyle;rounded=0;orthogonalLoop=1;jettySize=auto;html=1;exitX=0.5;exitY=0;exitDx=0;exitDy=0;entryX=1;entryY=0.5;entryDx=0;entryDy=0;entryPerimeter=0;" parent="1" source="dTVzYgWPUEsBKpjI8WKp-1" target="dYVZeftza5Ptzcx6qMnq-35" edge="1">
          <mxGeometry relative="1" as="geometry" />
        </mxCell>
        <mxCell id="OE27xe69D5moh9TOhAk3-2" value="" style="shape=image;verticalLabelPosition=bottom;labelBackgroundColor=default;verticalAlign=top;aspect=fixed;imageAspect=0;image=data:image/jpeg,/9j/4AAQSkZJRgABAQAAAQABAAD/2wCEAAkGBxAQDxUQEBAVEBIPDxUVFRgVFRYWFxUWFREWFhUTFhYYHSggGBolGxUVITEhJSkrLi4uGB81ODMsOSgtLysBCgoKDg0OGBAQGy0lICUtLS0vLSswLS8vLS0tLS0tLTIrKy0tLS0tKy0tLS0vKystLS0tLS0tLS0tLS0tLS0tLf/AABEIAL8BCAMBEQACEQEDEQH/xAAbAAEAAQUBAAAAAAAAAAAAAAAAAgMEBQYHAf/EAD4QAAIBAgIHAwkHAwQDAAAAAAABAgMRBDEFBiFBUWFxEoGRIiMyQlJiobHBBxMUQ3LR8DOCklOi0uFzssL/xAAaAQEAAwEBAQAAAAAAAAAAAAAAAgMEAQUG/8QAMhEBAAIBAwICCQUAAgMBAAAAAAECAwQRMRIhQVEFIjJhcZGx0fATgaHB4RTxQkSSI//aAAwDAQACEQMRAD8Ao47WHFVa8q/4irFubcVGckoK+yEUnZJKy577nvUwUisV2h5lslpnfdn9EfaNiqdo14xxEVm/QqdbryX0supnyaGk+z2W11No57t70FrZhMZZU6nYqP8ALqeTLu3S7mzBl0+THzHbzaaZq34Z0oWgAAAAAAAAAAAAAAAAAAAAAAAAAAAAAAAAAcI1o0c8NjKtJqy+8cofom+1C3RO3VM97BfrxxLzMlem8wxRare2Dktl0Drpi8LaLl9/TXqVG20vdnmu+65GbLpcd/dPuWUz3px3+LpGgNbcLjLRjL7uq/y52Uv7XlLu28kebl018ffmPNsxaml+3E+U/wBebPGdoAAAAAAAAAAAAAAAAAAAAAAAAAAAAAAADQvtW0T26UMXFbaL7E/0Tfkt9JbP72b9Dk2tNJ8WXU03jqcxPUYnqDiSCMpL5BCYieW36u69V8PaFe+IpcW/ORXKT9Lo/FGTNo6X717T/C7HqsmPtPrR/P8Av7/N0nRWlqGKh26M1Nb1lKL4Sjmjy8mK+OdrQ9LFmpljekr4rWgAAAAAAAAAAAAAAAAAAAAAAAAAAAAFDHYWFalOlUV4VYOMuklbxJVtNZiYcmN42lwTSWBnh686FT0qU3F81ukuTTT7z3sd4vWLQ8u9ZrMxKgiatJBGXqDiSCK6wOMqUJqpSm4SWTTt3c1yew5asWja0bwhtMT1VnafN0fVvXmFW1PFWpzyU1sg/wBXsP4dDzc+imPWx948vH/W7B6QiZ6cvafPwn7NyTuee9N6AAAAAAAAAAAAAAAAAAAAAAAAAAAABz37VNCXjHGwW2FoVbey35E+5u39y4HoaHLtPRP7Mmpp26oc4iemwykgikgikg5KSCKUXYIWrFo2ls+rWtdbDWg/OUl6jforjB7umXTMz5tNTL34n85dw6rJpp25r5fb7cOl6K0rRxUO3Rldb09kovhJbv5Y8jLitjna0Pcw56Zq9VJ/xela4AAAAAAAAAAAAAAAAAAAAAAAAAAClisPCrCVOa7UKkXGSe9NWaO1mazvDkxExtLhWn9EzweJnQlt7LvF+3B+jL6Pmme5iyRkrFoeVkpNLTErKLLlKaDj1BGUkEZSQcSQRmN+WT0XpCpSmp0puE48N64Nb1yZy1K5I6bQzb3wW66T+e90vVzWanil2J2p1rejulzg/pmueZ4+o0tsXeO8fnL3tHr6Z/Vntby8/gz5lbwAAAAAAAABgNYNbsLg32JSdSr/AKcLNr9Tyj37eTL8Wmvk7xwrtlrDS8X9pGKk/NUqVKPPtTl43S+BuroaRzMyotnt4LeGv2P9qm+tP9mS/wCFi96udReF/hPtGxK/qUaVRe72oPxbl8iNtBSeJn8+Tkau8cxDYdH6+4SpsqKdB+8u1Hxjd+KRmvockcd1tdZjnns2DCaToVv6VanU/TOLfhfYZrY719qJhorlpb2Zhc1KkYq8mori3ZEYiZ4SmYjli8VrLgqfpYiDtuheb6eRcurpctuK/wBfVnvrMFObR+3f6MXiNesMtkKdSpzsor4u/wADRX0fknmYhlv6VxRxEz+fngx9bXyo/Qw8Y/qm5fJIur6Nr42/hkv6Yt4Uj5/5ClS1px9X+nTi/wDx0py+rLJ0WCvtT85hRHpPV39isT8KzP8AcrynV0xUyTgucaUfhLaVzXRV57/P+lnX6Uvx2/8An+95ZHC4fSnr1qPer/8ArFfMovbSeFZ/PjMtOPH6T/8AK9f3/wAiGxGF7ABqn2hav/isP97Tjeth05K2c4etDm9l1zVt5q0ubottPEs+pxddd45hyCL3nrvL3VYu5JxNBFJBGUkHHqOIpJnUZjeNpX2Hq32rY009mxprJrgd5YslJpLfdWda+1ajiXaWUajyfBT4Pnv+fmanR7etj48ns6L0n1bY83PhPn8ff+fHcDzntAAAAAAANF1/1wdC+Fw0rVWvOTX5aa2Rj77W/cub2bdLp+r17cKMl532j8/Pz3cwu27t3bd23m282z1FEpxOq5K1aNOPam+ykRteKxvZXFZtO0PcJiYVFeEu0lnut1TFMlbxvWUMlLVnaV1EsUSmkdVWV8LhZVJKNODnJ5KMbvwRybRWN5lXFOqdqx3bRo/UjFTs6jjRXN9qX+MdnxMl9djrx3a6ejstva2j+fz5thweo+Gj/UlOq+vZj4R2/EyX9IZJ9mIhrp6LxR7UzP8AH0+7M4XQuFpehQgmt/ZTf+T2me2fJbm0tdNLhp7NYX6RS0AAAAAAcj+0PV78NX+/px8ziJN7MoVM3Ho9rXetx62lzddemeYeXqsXRbqjiWpJmpj3VYSuSiTdUR1xJBFJHHHqDidOTTujqu9YtG0sjBpq/EkwWjadpbXq1rO6VqNduVPKMs3Dk+Mfl0y8/U6Pq9anPk9XQ+k5x7Y8vHhPl8fd9PhxvcZJpNO6aumsmuJ5T6KJiY3h6HQAAAw2tmnI4LDSq7HUl5NOPGbWzuWb6F2DF+pfZDJbpjty4dUqynJzm3KU5OUm8227tvvPaiIjtDNw9R1CVSJ1VKw03hJ1Ka7Cu4yvbjstsM2qx2vWOnwTw3itu6Or2BqU+1Ka7PaSSW/ZvZHSYrU3myOqyVttEM5E2sMtk1X1WqYvy5N06Cfpb52zUL/PLqZdRqq4u0d5/OV2DS2y957R+cOl6N0bRw0OxRgoLfxlzk82zycmW2Sd7S9fHipjjasLsrWAAAAAAAAAC00ro6niaM6FVXhUVuaeakuadmuhOl5paLQjekXrNZcO0zouphK8qFX0oPY90ov0Zrk/g7rce1jvF6xaHh5KTS01lZElUqsKnElEnUrI6JIOJIIvUHF1g57ezxy6nYZs9O3UvUdZGwauawyw7VOpeVFvq4c48VxXhzyanSxk9avP1ejofSNsE9F+9fp8Pd7vl79/o1YzipQalGSumsmjx5iYnaX1FL1vWLVneJTOJAEKtWMIucmoxim23sSSV22+B2I3naHJnaN5cR1w0+8diXNXVKneNJP2b7ZNcZWv4Lcezgw/p128fFmmeqd5YSJejKogrlUidVSnE6qlUiFctg1S0A8ZW8q6o07Oo8r8IJ8X8F3FGpzxir25nhZgwfq278Ry61SpxhFRilGMUkktiSWxJI8SZmZ3l7MRERtCZx0AAAAAAAAAAAGua7atrG0LwSVeld03l2uNNvg/g7czRp836du/Es2pwfq17cw43ODi3FppxbTT2NNOzTW53PXeLLwISlGTWQ3R32VoVlv2Eosl1QrI6JIOJRdtvAIzG8bMnB3SfEk86Y2nZUQQZrV/Tk8NLsu8qUntjvXvR58t5m1GmjLG8ct+h19tNO096z4eXvh0DDYiFSCnCSlGSumjxrVms7Ty+rx5K5Kxak7xKo3ba9xFNyrX/W9YlvDYeXmYvy5r81p5L3E9+98lt9TTafo9a3P0ZrX6vg0g2OJROoSqRCqVSJ1XKcTqqVzhcPKpONOC7U5yUYri2zlrRWJmVc+UO0aD0XDC4eNGO3sq8n7U36Uv5uSW48HNlnJebS9rDjjHSKr8rWgAAAAAAAAAAAAANB+0TVbtp4zDx8uK89FetFL+ol7SWfFdNu7S59vUt+zztbpt/wD9K8+LmqPReS9OIgRlKMmshu5vMKscRxR3qOtVjWjxsS6od64ZPAzTjnk2vr9SUSx5tursukdUve0lm0jkzCMzC/0NrE8LPY3OnJ+VH/6XCXz+WXUY6ZY97Vo/SNtLbt3rPMf3Hv8Ar9MVrZrjicVeil9xRecU7ua9+W9cls43I4NNWnfmX0+PUV1FIvWe35y1U0rBBxOJ1CVSJ1VKogrlUijqm0xEby6F9nOg7XxdRbdsafylP6eJ5msz7+pC70dT9Wf1p44r/c/1H7t8PPeuAAAAAAAAAAAAAAAAOW6/6qfcSeKw8fMyd6kV+XJv0l7j+D5ZelptR1epbl4+t0vR69ePH3f40o2PNkCMvQjIcRl6cRlc4TJ9Qy6jmF0jjLKRxADiFWkpKzX/AEdidmjT6nJgt1Un7T8WOr4KUcvKXLPwJxaH0ul9KYc3a3qz7+P2lbok9KU0dVSqROq5VqcG8kcmYhlzZ6Yo3vLM6A0TLEV40o+s7yfsxXpP+b2jPmzdNd3lVvk1+aMVe1fH4ec/173YsPRjThGEFaMIpJcElZHjzMzO8vsaUrSsVrxCocSAAAAAAAAAAAAAAAAEZwUk4tJpqzT2pp5poE93JtdtU3hJOtRTeHk+rpN+q/d4Pue6/qafUfqRtPP1eFrNJ+lPVX2fp/jUzUwS9OIyBGXpxFdYRbH1DJqJ7wuUcZZSOIAAABCpSjLNJ/PxOxMw0YtXmxdqWmPp8lL8HDn4neqWuPS2o8dp/ZOOGit1+o6pV39Jai3jt8FVHGK1ptO8y6ZqPof7ih97NWqV0nzjD1Y/V9VwPM1GTqttHEPsfQ+j/Qw9dvat/EeDZDO9cAAAAAAAAAAAAAAAAAAEKtOM4uMoqUZJppq6aas01vR2J27w5MRMbS5TrnqfLCN1qCc8O3tWbpcnxhwlu38X6eDURf1bc/V4Wr0c4vWp7P0/xqRpedIEZenHF9h42igwZZ3tKsjiiXpxEAAAAAABndT9D/icReSvSpWlPg/Zh3teCZRqMnRXtzL1PRWj/wCRm3tHq17z/UOpnmPtgAAAAAAAAAAAAAAAAAAAAHkkmrNXTzA5zrdqK43r4KN45ypLNcXT4r3fDgb8Gq39W/z+7xtX6P23vi+X2+3yaC18Da8eUqULuwV3t013ZBB58poirkDgAAAAAEqcHKSjFXcmkks227JITOyVazaYrHMut6u6KWFw8afrPypvjJ59yyXQ8nLk67bvvNDpY02GKePj8WTK2wAAAAAAAAAAAAAAAAAAAAAAAa1rNqdQxl6kfM1/bS2S/XHf1z65GjFqLU7cww6rQ0zd47W8/u5jVwEqE5U5OMnCTi3B3js4Ox6GPNS/EvltZivjttPEeMcPUTefKRxEDgAAAAAG66gaFu/xdRbFdUk97ylPu2pd/BGPVZdvUj930voTQ/8AsXj4ff7N7ML6UAAAAAAAAAAAAAAAAAAAAAAAANc1w05+Hp/dU352ot3qR3y6vJeO4Mmqz9FemOZc4ZKHjypOJqpntHPdiy6THfjtLw01zVlgvo8leO4WRaJ4Z7Y7V5gOoAAO8ouaR1ZXDefBlNWdDyxtfs7Y0oWdSS4bop8X+7K82SMVd/HwenoPR/62TvxHP55ut0aUYRUIpRjFJJLJJKySPJmZmd5fY1rFYiI4TOOgAAAAAAAAAAAAAAAAAAAAAADG6d0vDC0u29s5bIR9p/st7OTOyrNljHXdzDGYidWcqk32pTd2/wCbjkPGvabTvK2kThVKDLIRlBlkISiyyEJeMshXMQi2WQrmtfJFlkOLrRWjqmJqxo0leUs3ujHfKXJC14pXqlPDhtmvFKuv6G0XTwtFUaa2LbJ75Secnz/6PJyZJvbeX1enwVwUilf+18QXAAAAAAAAAAAAAAAAAAAAAAACx0vpOnhqfbntb2Ris5Pgv3OWtEK8mSKRvLmulMfUxFR1Kju3kt0VuiuRVvu8nJebzvKxkThTKnIshGUGWQhKLLIQlFlkISiyyEJRZZCEq2AwVSvUjSpR7U5eCW+Te5LiSm0VjeXceO2S0UrHd1nVzQVPB0uzHypys6k98nwXCK3I83LlnJO76bS6WunptHPjP54MsVNQAAAAAAAAAAAAAAAAAAAAAAAxumdMU8NG8vKm15MVm+b4LmQveKq8mWKQ55pLHVK9R1Kju3lwivZityM/VMzvLzMl5tO8rKRZCqVORZCEoSLIQlTZOEJRZZCEosthCUWWQhK70Touriqn3dKN36zfowXGT/jZ214pG8p4sN81umn/AE6nq/oKlg6fZh5U5enNrbJ/SPBfW7MOTJN57votNpaYK7V58ZZUraQAAAAAAAAAAAAAAAAAAAAAABr2mtZY07wo2nPJy9WP/J/D5GfJniO1VGTNEdoaXiKspycpycpSe1vNmfeZ7yw2mZ7yt5E4VypyLYQlTkWQhKnIshCVNlkISiyyEJRZZCEs9q9qrWxTU5XpUfaa2yXuJ/N7OotlivxatPor5u89q+f2+7pOjdH0sPTVOjBRivFv2pPezLa02neXu4sVMVemkdl0RWAAAAAAAAAAAAAAAAAAAAAAFtjsfTox7VSVuCzb6IryZK0je0uTaI5ahpjT9SteMfN0+Czl+p/RfEw5NRa/aO0M18kz2YORXDPKnIthCVKRZCuVORbCEqciyEJU5FkISgyyEJXejNEV8S7Uabkr7ZPZFdZPZ3Zk94jlLHhvln1Y+zeNB6mUaNp17V6i3W8iL5L1ur8CFskzw9TBoKU737z/AA2krbwAAAAAAAAAAAAAAAAAAAAAC3xWNp0lec1HlvfRLaVZM1MftS5MsBpDWST2UY9le1La+5ZL4mDJr5ntSNveha/k16tUlJuUm5N5tu7Mm8zO8qJUJFkISpyLIVypSLYQlTkWwhKlIshXKMYOT7MU5N5JJtvuRbCO0z2hl8Dqni6u1wVKPGbs/wDFbfGxZC6mkyW8Nvi2fRmpmHpWlVvXl72yH+Cz72zu7Zj0WOve3f8APJsdOCilGKUUlZJKyXRHGuI27QkHQAAAAAAAAAAAAAAAAAAAAAC1xuGnNWjVlT6JfPP4lGbFe/s3mPz5/wAjB19Xard1UjK/G6b+Z51vR2TfeLRPx/JRmqzqaAxCygpdJL62I/8ACzR4fyhNZW09C4lflf7ofudjTZY8Pormkqb0Lif9L/dD9ycYMnl9EZx28nq1dxb/ACrdZw+jLYwZPJH9G/kqw1SxLzdOPWTfyRbGCx/x7yu6Opft1+6Mfq39C2MPnLsaTzlkcNqnhIelGVR+/L6RsiyKRCyulxxz3ZfDYWnSVqdOMF7sUvkTXVrWvEKwSAAAAAAAAAAAAAAAAAAAAAAAAD//2Q==;" vertex="1" parent="1">
          <mxGeometry x="851.3299999999999" y="705.87" width="47.34" height="34.25" as="geometry" />
        </mxCell>
        <mxCell id="OE27xe69D5moh9TOhAk3-8" style="edgeStyle=orthogonalEdgeStyle;rounded=0;orthogonalLoop=1;jettySize=auto;html=1;entryX=1;entryY=0.5;entryDx=0;entryDy=0;" edge="1" parent="1" source="OE27xe69D5moh9TOhAk3-3" target="dYVZeftza5Ptzcx6qMnq-39">
          <mxGeometry relative="1" as="geometry">
            <Array as="points">
              <mxPoint x="680" y="730" />
              <mxPoint x="680" y="730" />
            </Array>
          </mxGeometry>
        </mxCell>
        <mxCell id="OE27xe69D5moh9TOhAk3-3" value="" style="shape=cylinder3;whiteSpace=wrap;html=1;boundedLbl=1;backgroundOutline=1;size=15;" vertex="1" parent="1">
          <mxGeometry x="715" y="700" width="62" height="80" as="geometry" />
        </mxCell>
        <mxCell id="OE27xe69D5moh9TOhAk3-4" value="" style="shape=image;verticalLabelPosition=bottom;labelBackgroundColor=default;verticalAlign=top;aspect=fixed;imageAspect=0;image=data:image/svg+xml,PHN2ZyB4bWxucz0iaHR0cDovL3d3dy53My5vcmcvMjAwMC9zdmciIHhtbDpzcGFjZT0icHJlc2VydmUiIHZpZXdCb3g9IjAgMCA0MzIuMDcxIDQ0NS4zODMiIGhlaWdodD0iNDQ1LjM4M3B0IiB3aWR0aD0iNDMyLjA3MXB0Ij4mI3hhOzxnIHN0eWxlPSJmaWxsLXJ1bGU6bm9uemVybztjbGlwLXJ1bGU6bm9uemVybztzdHJva2U6IzAwMDAwMDtzdHJva2UtbWl0ZXJsaW1pdDo0OyIgaWQ9Im9yZ2luYWwiPiYjeGE7CTwvZz4mI3hhOzxnIHN0eWxlPSJmaWxsLXJ1bGU6bm9uemVybztjbGlwLXJ1bGU6bm9uemVybztmaWxsOm5vbmU7c3Ryb2tlOiNGRkZGRkY7c3Ryb2tlLXdpZHRoOjEyLjQ2NTE7c3Ryb2tlLWxpbmVjYXA6cm91bmQ7c3Ryb2tlLWxpbmVqb2luOnJvdW5kO3N0cm9rZS1taXRlcmxpbWl0OjQ7IiBpZD0iTGF5ZXJfeDAwMjBfMyI+JiN4YTs8cGF0aCBkPSJNMzIzLjIwNSwzMjQuMjI3YzIuODMzLTIzLjYwMSwxLjk4NC0yNy4wNjIsMTkuNTYzLTIzLjIzOWw0LjQ2MywwLjM5MmMxMy41MTcsMC42MTUsMzEuMTk5LTIuMTc0LDQxLjU4Ny03YzIyLjM2Mi0xMC4zNzYsMzUuNjIyLTI3LjcsMTMuNTcyLTIzLjE0OGMtNTAuMjk3LDEwLjM3Ni01My43NTUtNi42NTUtNTMuNzU1LTYuNjU1YzUzLjExMS03OC44MDMsNzUuMzEzLTE3OC44MzYsNTYuMTQ5LTIwMy4zMjIgICAgQzM1Mi41MTQtNS41MzQsMjYyLjAzNiwyNi4wNDksMjYwLjUyMiwyNi44NjlsLTAuNDgyLDAuMDg5Yy05LjkzOC0yLjA2Mi0yMS4wNi0zLjI5NC0zMy41NTQtMy40OTZjLTIyLjc2MS0wLjM3NC00MC4wMzIsNS45NjctNTMuMTMzLDE1LjkwNGMwLDAtMTYxLjQwOC02Ni40OTgtMTUzLjg5OSw4My42MjhjMS41OTcsMzEuOTM2LDQ1Ljc3NywyNDEuNjU1LDk4LjQ3LDE3OC4zMSAgICBjMTkuMjU5LTIzLjE2MywzNy44NzEtNDIuNzQ4LDM3Ljg3MS00Mi43NDhjOS4yNDIsNi4xNCwyMC4zMDcsOS4yNzIsMzEuOTEyLDguMTQ3bDAuODk3LTAuNzY1Yy0wLjI4MSwyLjg3Ni0wLjE1Nyw1LjY4OSwwLjM1OSw5LjAxOWMtMTMuNTcyLDE1LjE2Ny05LjU4NCwxNy44My0zNi43MjMsMjMuNDE2Yy0yNy40NTcsNS42NTktMTEuMzI2LDE1LjczNC0wLjc5NywxOC4zNjdjMTIuNzY4LDMuMTkzLDQyLjMwNSw3LjcxNiw2Mi4yNjgtMjAuMjI0ICAgIGwtMC43OTUsMy4xODhjNS4zMjUsNC4yNiw0Ljk2NSwzMC42MTksNS43Miw0OS40NTJjMC43NTYsMTguODM0LDIuMDE3LDM2LjQwOSw1Ljg1Niw0Ni43NzFjMy44MzksMTAuMzYsOC4zNjksMzcuMDUsNDQuMDM2LDI5LjQwNmMyOS44MDktNi4zODgsNTIuNi0xNS41ODIsNTQuNjc3LTEwMS4xMDciIHN0eWxlPSJmaWxsOiMwMDAwMDA7c3Ryb2tlOiMwMDAwMDA7c3Ryb2tlLXdpZHRoOjM3LjM5NTM7c3Ryb2tlLWxpbmVjYXA6YnV0dDtzdHJva2UtbGluZWpvaW46bWl0ZXI7Ii8+JiN4YTs8cGF0aCBkPSJNNDAyLjM5NSwyNzEuMjNjLTUwLjMwMiwxMC4zNzYtNTMuNzYtNi42NTUtNTMuNzYtNi42NTVjNTMuMTExLTc4LjgwOCw3NS4zMTMtMTc4Ljg0Myw1Ni4xNTMtMjAzLjMyNmMtNTIuMjctNjYuNzg1LTE0Mi43NTItMzUuMi0xNDQuMjYyLTM0LjM4bC0wLjQ4NiwwLjA4N2MtOS45MzgtMi4wNjMtMjEuMDYtMy4yOTItMzMuNTYtMy40OTZjLTIyLjc2MS0wLjM3My00MC4wMjYsNS45NjctNTMuMTI3LDE1LjkwMiAgICBjMCwwLTE2MS40MTEtNjYuNDk1LTE1My45MDQsODMuNjNjMS41OTcsMzEuOTM4LDQ1Ljc3NiwyNDEuNjU3LDk4LjQ3MSwxNzguMzEyYzE5LjI2LTIzLjE2MywzNy44NjktNDIuNzQ4LDM3Ljg2OS00Mi43NDhjOS4yNDMsNi4xNCwyMC4zMDgsOS4yNzIsMzEuOTA4LDguMTQ3bDAuOTAxLTAuNzY1Yy0wLjI4LDIuODc2LTAuMTUyLDUuNjg5LDAuMzYxLDkuMDE5Yy0xMy41NzUsMTUuMTY3LTkuNTg2LDE3LjgzLTM2LjcyMywyMy40MTYgICAgYy0yNy40NTksNS42NTktMTEuMzI4LDE1LjczNC0wLjc5NiwxOC4zNjdjMTIuNzY4LDMuMTkzLDQyLjMwNyw3LjcxNiw2Mi4yNjYtMjAuMjI0bC0wLjc5NiwzLjE4OGM1LjMxOSw0LjI2LDkuMDU0LDI3LjcxMSw4LjQyOCw0OC45NjljLTAuNjI2LDIxLjI1OS0xLjA0NCwzNS44NTQsMy4xNDcsNDcuMjU0YzQuMTkxLDExLjQsOC4zNjgsMzcuMDUsNDQuMDQyLDI5LjQwNmMyOS44MDktNi4zODgsNDUuMjU2LTIyLjk0Miw0Ny40MDUtNTAuNTU1ICAgIGMxLjUyNS0xOS42MzEsNC45NzYtMTYuNzI5LDUuMTk0LTM0LjI4bDIuNzY4LTguMzA5YzMuMTkyLTI2LjYxMSwwLjUwNy0zNS4xOTYsMTguODcyLTMxLjIwM2w0LjQ2MywwLjM5MmMxMy41MTcsMC42MTUsMzEuMjA4LTIuMTc0LDQxLjU5MS03YzIyLjM1OC0xMC4zNzYsMzUuNjE4LTI3LjcsMTMuNTczLTIzLjE0OHoiIHN0eWxlPSJmaWxsOiMzMzY3OTE7c3Ryb2tlOm5vbmU7Ii8+JiN4YTs8cGF0aCBkPSJNMjE1Ljg2NiwyODYuNDg0Yy0xLjM4NSw0OS41MTYsMC4zNDgsOTkuMzc3LDUuMTkzLDExMS40OTVjNC44NDgsMTIuMTE4LDE1LjIyMywzNS42ODgsNTAuOSwyOC4wNDVjMjkuODA2LTYuMzksNDAuNjUxLTE4Ljc1Niw0NS4zNTctNDYuMDUxYzMuNDY2LTIwLjA4MiwxMC4xNDgtNzUuODU0LDExLjAwNS04Ny4yODEiLz4mI3hhOzxwYXRoIGQ9Ik0xNzMuMTA0LDM4LjI1NmMwLDAtMTYxLjUyMS02Ni4wMTYtMTU0LjAxMiw4NC4xMDljMS41OTcsMzEuOTM4LDQ1Ljc3OSwyNDEuNjY0LDk4LjQ3MywxNzguMzE2YzE5LjI1Ni0yMy4xNjYsMzYuNjcxLTQxLjMzNSwzNi42NzEtNDEuMzM1Ii8+JiN4YTs8cGF0aCBkPSJNMjYwLjM0OSwyNi4yMDdjLTUuNTkxLDEuNzUzLDg5Ljg0OC0zNC44ODksMTQ0LjA4NywzNC40MTdjMTkuMTU5LDI0LjQ4NC0zLjA0MywxMjQuNTE5LTU2LjE1MywyMDMuMzI5Ii8+JiN4YTs8cGF0aCBkPSJNMzQ4LjI4MiwyNjMuOTUzYzAsMCwzLjQ2MSwxNy4wMzYsNTMuNzY0LDYuNjUzYzIyLjA0LTQuNTUyLDguNzc2LDEyLjc3NC0xMy41NzcsMjMuMTU1Yy0xOC4zNDUsOC41MTQtNTkuNDc0LDEwLjY5Ni02MC4xNDYtMS4wNjljLTEuNzI5LTMwLjM1NSwyMS42NDctMjEuMTMzLDE5Ljk2LTI4LjczOWMtMS41MjUtNi44NS0xMS45NzktMTMuNTczLTE4Ljg5NC0zMC4zMzggICAgYy02LjAzNy0xNC42MzMtODIuNzk2LTEyNi44NDksMjEuMjg3LTExMC4xODNjMy44MTMtMC43ODktMjcuMTQ2LTk5LjAwMi0xMjQuNTUzLTEwMC41OTljLTk3LjM4NS0xLjU5Ny05NC4xOSwxMTkuNzYyLTk0LjE5LDExOS43NjIiIHN0eWxlPSJzdHJva2UtbGluZWpvaW46YmV2ZWw7Ii8+JiN4YTs8cGF0aCBkPSJNMTg4LjYwNCwyNzQuMzM0Yy0xMy41NzcsMTUuMTY2LTkuNTg0LDE3LjgyOS0zNi43MjMsMjMuNDE3Yy0yNy40NTksNS42Ni0xMS4zMjYsMTUuNzMzLTAuNzk3LDE4LjM2NWMxMi43NjgsMy4xOTUsNDIuMzA3LDcuNzE4LDYyLjI2Ni0yMC4yMjljNi4wNzgtOC41MDktMC4wMzYtMjIuMDg2LTguMzg1LTI1LjU0N2MtNC4wMzQtMS42NzEtOS40MjgtMy43NjUtMTYuMzYxLDMuOTk0eiIvPiYjeGE7PHBhdGggZD0iTTE4Ny43MTUsMjc0LjA2OWMtMS4zNjgtOC45MTcsMi45My0xOS41MjgsNy41MzYtMzEuOTQyYzYuOTIyLTE4LjYyNiwyMi44OTMtMzcuMjU1LDEwLjExNy05Ni4zMzljLTkuNTIzLTQ0LjAyOS03My4zOTYtOS4xNjMtNzMuNDM2LTMuMTkzYy0wLjAzOSw1Ljk2OCwyLjg4OSwzMC4yNi0xLjA2Nyw1OC41NDhjLTUuMTYyLDM2LjkxMywyMy40ODgsNjguMTMyLDU2LjQ3OSw2NC45MzgiLz4mI3hhOzxwYXRoIGQ9Ik0xNzIuNTE3LDE0MS43Yy0wLjI4OCwyLjAzOSwzLjczMyw3LjQ4LDguOTc2LDguMjA3YzUuMjM0LDAuNzMsOS43MTQtMy41MjIsOS45OTgtNS41NTljMC4yODQtMi4wMzktMy43MzItNC4yODUtOC45NzctNS4wMTVjLTUuMjM3LTAuNzMxLTkuNzE5LDAuMzMzLTkuOTk2LDIuMzY3eiIgc3R5bGU9ImZpbGw6I0ZGRkZGRjtzdHJva2Utd2lkdGg6NC4xNTU7c3Ryb2tlLWxpbmVjYXA6YnV0dDtzdHJva2UtbGluZWpvaW46bWl0ZXI7Ii8+JiN4YTs8cGF0aCBkPSJNMzMxLjk0MSwxMzcuNTQzYzAuMjg0LDIuMDM5LTMuNzMyLDcuNDgtOC45NzYsOC4yMDdjLTUuMjM4LDAuNzMtOS43MTgtMy41MjItMTAuMDA1LTUuNTU5Yy0wLjI3Ny0yLjAzOSwzLjc0LTQuMjg1LDguOTc5LTUuMDE1YzUuMjM5LTAuNzMsOS43MTgsMC4zMzMsMTAuMDAyLDIuMzY4eiIgc3R5bGU9ImZpbGw6I0ZGRkZGRjtzdHJva2Utd2lkdGg6Mi4wNzc1O3N0cm9rZS1saW5lY2FwOmJ1dHQ7c3Ryb2tlLWxpbmVqb2luOm1pdGVyOyIvPiYjeGE7PHBhdGggZD0iTTM1MC42NzYsMTIzLjQzMmMwLjg2MywxNS45OTQtMy40NDUsMjYuODg4LTMuOTg4LDQzLjkxNGMtMC44MDQsMjQuNzQ4LDExLjc5OSw1My4wNzQtNy4xOTEsODEuNDM1Ii8+JiN4YTs8cGF0aCBkPSJNMCw2MC4yMzIiIHN0eWxlPSJzdHJva2Utd2lkdGg6MzsiLz4mI3hhOzwvZz4mI3hhOzwvc3ZnPg==;" vertex="1" parent="1">
          <mxGeometry x="725.61" y="734" width="40.77" height="42" as="geometry" />
        </mxCell>
        <mxCell id="OE27xe69D5moh9TOhAk3-5" value="DB" style="text;html=1;align=center;verticalAlign=middle;whiteSpace=wrap;rounded=0;" vertex="1" parent="1">
          <mxGeometry x="700" y="680" width="90" height="20" as="geometry" />
        </mxCell>
        <mxCell id="OE27xe69D5moh9TOhAk3-6" value="" style="shape=image;verticalLabelPosition=bottom;labelBackgroundColor=default;verticalAlign=top;aspect=fixed;imageAspect=0;image=data:image/svg+xml,PHN2ZyBwcmVzZXJ2ZUFzcGVjdFJhdGlvPSJ4TWlkWU1pZCIgeG1sbnM6eGxpbms9Imh0dHA6Ly93d3cudzMub3JnLzE5OTkveGxpbmsiIHhtbG5zPSJodHRwOi8vd3d3LnczLm9yZy8yMDAwL3N2ZyIgdmVyc2lvbj0iMS4xIiB2aWV3Qm94PSIwIDAgMjU2IDI4OSIgaGVpZ2h0PSIyODlweCIgd2lkdGg9IjI1NnB4Ij4mI3hhOyAgICA8Zz4mI3hhOyAgICAgICAgPHBhdGggZmlsbD0iIzUzOUU0MyIgZD0iTTEyNy45OTk5OTksMjg4LjQ2Mzc3MSBDMTI0LjAyNDg0NCwyODguNDYzNzcxIDEyMC4zMTQ2OTksMjg3LjQwMzcyOCAxMTYuODY5NTY0LDI4NS41NDg2NTYgTDgxLjYyMzE4ODQsMjY0LjYxMjgzOCBDNzYuMzIyOTgsMjYxLjY5NzcyNCA3OC45NzMwODU0LDI2MC42Mzc2ODIgODAuNTYzMTQ1OCwyNjAuMTA3NjYxIEM4Ny43MTg0MjU5LDI1Ny43MjI1NyA4OS4wNDM0Nzc1LDI1Ny4xOTI1NDcgOTYuNDYzNzY4OCwyNTIuOTUyMzgxIEM5Ny4yNTg3OTc5LDI1Mi40MjIzNjEgOTguMzE4ODQwNSwyNTIuNjg3MzcyIDk5LjExMzg3MTgsMjUzLjIxNzM5MiBMMTI2LjE0NDkyNywyNjkuMzgzMDI0IEMxMjcuMjA0OTcsMjY5LjkxMzA0NSAxMjguNTMwMDIxLDI2OS45MTMwNDUgMTI5LjMyNTA1MywyNjkuMzgzMDI0IEwyMzUuMDY0MTgyLDIwOC4xNjU2MzQgQzIzNi4xMjQyMjUsMjA3LjYzNTYxMSAyMzYuNjU0MjQ1LDIwNi41NzU1NzEgMjM2LjY1NDI0NSwyMDUuMjUwNTE5IEwyMzYuNjU0MjQ1LDgzLjA4MDc0NjcgQzIzNi42NTQyNDUsODEuNzU1NjkyOSAyMzYuMTI0MjI1LDgwLjY5NTY1MjYgMjM1LjA2NDE4Miw4MC4xNjU2MzI0IEwxMjkuMzI1MDUzLDE5LjIxMzI1MDYgQzEyOC4yNjUwMSwxOC42ODMyMzA1IDEyNi45Mzk5NTksMTguNjgzMjMwNSAxMjYuMTQ0OTI3LDE5LjIxMzI1MDYgTDIwLjQwNTc5NTQsODAuMTY1NjMyNCBDMTkuMzQ1NzU1MSw4MC42OTU2NTI2IDE4LjgxNTczNDksODIuMDIwNzA0MSAxOC44MTU3MzQ5LDgzLjA4MDc0NjcgTDE4LjgxNTczNDksMjA1LjI1MDUxOSBDMTguODE1NzM0OSwyMDYuMzEwNTYgMTkuMzQ1NzU1MSwyMDcuNjM1NjExIDIwLjQwNTc5NTQsMjA4LjE2NTYzNCBMNDkuMjkxOTI0NywyMjQuODYxMjg2IEM2NC45Mjc1MzY0LDIzMi44MTE1OTUgNzQuNzMyOTE5NiwyMjMuNTM2MjM0IDc0LjczMjkxOTYsMjE0LjI2MDg3MSBMNzQuNzMyOTE5Niw5My42ODExNTkgQzc0LjczMjkxOTYsOTIuMDkxMDk4NSA3Ni4wNTc5NzExLDkwLjUwMTAzNTggNzcuOTEzMDQyOCw5MC41MDEwMzU4IEw5MS40Mjg1NzE2LDkwLjUwMTAzNTggQzkzLjAxODYzNDMsOTAuNTAxMDM1OCA5NC42MDg2OTQ4LDkxLjgyNjA4NzMgOTQuNjA4Njk0OCw5My42ODExNTkgTDk0LjYwODY5NDgsMjE0LjI2MDg3MSBDOTQuNjA4Njk0OCwyMzUuMTk2Njg5IDgzLjIxMzI1MTIsMjQ3LjM4NzE2NCA2My4zMzc0NzM3LDI0Ny4zODcxNjQgQzU3LjI0MjIzNjIsMjQ3LjM4NzE2NCA1Mi40NzIwNTAyLDI0Ny4zODcxNjQgMzguOTU2NTIxNCwyNDAuNzYxOTA2IEwxMS4xMzA0MzQ3LDIyNC44NjEyODYgQzQuMjQwMTY1ODEsMjIwLjg4NjEyOSA1LjY4NDM0MTg5ZS0xNCwyMTMuNDY1ODQgNS42ODQzNDE4OWUtMTQsMjA1LjUxNTUyOCBMNS42ODQzNDE4OWUtMTQsODMuMzQ1NzU1NyBDNS42ODQzNDE4OWUtMTQsNzUuMzk1NDQ2NSA0LjI0MDE2NTgxLDY3Ljk3NTE1NTIgMTEuMTMwNDM0Nyw2NC4wMDAwMDA2IEwxMTYuODY5NTY0LDIuNzgyNjA3NTIgQzEyMy40OTQ4MjQsLTAuOTI3NTM1ODQxIDEzMi41MDUxNzYsLTAuOTI3NTM1ODQxIDEzOS4xMzA0MzYsMi43ODI2MDc1MiBMMjQ0Ljg2OTU2NSw2NC4wMDAwMDA2IEMyNTEuNzU5ODM0LDY3Ljk3NTE1NTIgMjU2LDc1LjM5NTQ0NjUgMjU2LDgzLjM0NTc1NTcgTDI1NiwyMDUuNTE1NTI4IEMyNTYsMjEzLjQ2NTg0IDI1MS43NTk4MzQsMjIwLjg4NjEyOSAyNDQuODY5NTY1LDIyNC44NjEyODYgTDEzOS4xMzA0MzYsMjg2LjA3ODY3NiBDMTM1LjY4NTI5OSwyODcuNjY4NzM5IDEzMS43MTAxNDUsMjg4LjQ2Mzc3MSAxMjcuOTk5OTk5LDI4OC40NjM3NzEgTDEyNy45OTk5OTksMjg4LjQ2Mzc3MSBaIE0xNjAuNTk2Mjc0LDIwNC40NTU0ODggQzExNC4yMTk0NjEsMjA0LjQ1NTQ4OCAxMDQuNjc5MDg5LDE4My4yNTQ2NTkgMTA0LjY3OTA4OSwxNjUuMjMzOTU1IEMxMDQuNjc5MDg5LDE2My42NDM4OTMgMTA2LjAwNDE0MSwxNjIuMDUzODMyIDEwNy44NTkyMTIsMTYyLjA1MzgzMiBMMTIxLjYzOTc1MiwxNjIuMDUzODMyIEMxMjMuMjI5ODEzLDE2Mi4wNTM4MzIgMTI0LjU1NDg2NCwxNjMuMTEzODcyIDEyNC41NTQ4NjQsMTY0LjcwMzkzNSBDMTI2LjY3NDk0NywxNzguNzQ5NDg0IDEzMi43NzAxODcsMTg1LjYzOTc1MyAxNjAuODYxMjgzLDE4NS42Mzk3NTMgQzE4My4xMjIxNTQsMTg1LjYzOTc1MyAxOTIuNjYyNTI2LDE4MC42MDQ1NTYgMTkyLjY2MjUyNiwxNjguNjc5MDkgQzE5Mi42NjI1MjYsMTYxLjc4ODgyMSAxOTAuMDEyNDIzLDE1Ni43NTM2MjQgMTU1LjI5NjA2NSwxNTMuMzA4NDg5IEMxMjYuNDA5OTM4LDE1MC4zOTMzNzUgMTA4LjM4OTIzNSwxNDQuMDMzMTI2IDEwOC4zODkyMzUsMTIwLjk3NzIyNiBDMTA4LjM4OTIzNSw5OS41MTEzODc1IDEyNi40MDk5MzgsODYuNzkwODkwMSAxNTYuNjIxMTE5LDg2Ljc5MDg5MDEgQzE5MC41NDI0NDMsODYuNzkwODkwMSAyMDcuMjM4MDk1LDk4LjQ1MTM0NzIgMjA5LjM1ODE3OCwxMjMuODkyMzQgQzIwOS4zNTgxNzgsMTI0LjY4NzM3MSAyMDkuMDkzMTY3LDEyNS40ODI0MDMgMjA4LjU2MzE0NywxMjYuMjc3NDM0IEMyMDguMDMzMTI3LDEyNi44MDc0NTQgMjA3LjIzODA5NSwxMjcuMzM3NDc0IDIwNi40NDMwNjQsMTI3LjMzNzQ3NCBMMTkyLjY2MjUyNiwxMjcuMzM3NDc0IEMxOTEuMzM3NDc1LDEyNy4zMzc0NzQgMTkwLjAxMjQyMywxMjYuMjc3NDM0IDE4OS43NDc0MTIsMTI0Ljk1MjM4MiBDMTg2LjU2NzI4OSwxMTAuMzc2ODEzIDE3OC4zNTE5NjYsMTA1LjYwNjYyNSAxNTYuNjIxMTE5LDEwNS42MDY2MjUgQzEzMi4yNDAxNjUsMTA1LjYwNjYyNSAxMjkuMzI1MDUzLDExNC4wODY5NTcgMTI5LjMyNTA1MywxMjAuNDQ3MjA1IEMxMjkuMzI1MDUzLDEyOC4xMzI1MDYgMTMyLjc3MDE4NywxMzAuNTE3NiAxNjUuNjMxNDcxLDEzNC43NTc3NjYgQzE5OC4yMjc3NDQsMTM4Ljk5NzkzMSAyMTMuNTk4MzQ0LDE0NS4wOTMxNjkgMjEzLjU5ODM0NCwxNjcuODg0MDU4IEMyMTMuMzMzMzMzLDE5MS4yMDQ5NyAxOTQuMjUyNTg5LDIwNC40NTU0ODggMTYwLjU5NjI3NCwyMDQuNDU1NDg4IEwxNjAuNTk2Mjc0LDIwNC40NTU0ODggWiIvPiYjeGE7ICAgIDwvZz4mI3hhOzwvc3ZnPg==;" vertex="1" parent="1">
          <mxGeometry x="518.8299999999999" y="704" width="33.66" height="38" as="geometry" />
        </mxCell>
      </root>
    </mxGraphModel>
  </diagram>
</mxfile>
